<svg aria-roledescription="er" viewBox="0 0 1153.525634765625 562" style="max-width: 1153.53px; background-color: white;" xmlns:xlink="http://www.w3.org/1999/xlink" xmlns="http://www.w3.org/2000/svg" width="100%" id="mermaid-0"><style>#mermaid-0{font-family:"trebuchet ms",verdana,arial,sans-serif;font-size:16px;fill:#000000;}#mermaid-0 .error-icon{fill:#552222;}#mermaid-0 .error-text{fill:#552222;stroke:#552222;}#mermaid-0 .edge-thickness-normal{stroke-width:2px;}#mermaid-0 .edge-thickness-thick{stroke-width:3.5px;}#mermaid-0 .edge-pattern-solid{stroke-dasharray:0;}#mermaid-0 .edge-pattern-dashed{stroke-dasharray:3;}#mermaid-0 .edge-pattern-dotted{stroke-dasharray:2;}#mermaid-0 .marker{fill:#666;stroke:#666;}#mermaid-0 .marker.cross{stroke:#666;}#mermaid-0 svg{font-family:"trebuchet ms",verdana,arial,sans-serif;font-size:16px;}#mermaid-0 .entityBox{fill:#eee;stroke:#999;}#mermaid-0 .attributeBoxOdd{fill:#ffffff;stroke:#999;}#mermaid-0 .attributeBoxEven{fill:#f2f2f2;stroke:#999;}#mermaid-0 .relationshipLabelBox{fill:hsl(-160, 0%, 93.3333333333%);opacity:0.7;background-color:hsl(-160, 0%, 93.3333333333%);}#mermaid-0 .relationshipLabelBox rect{opacity:0.5;}#mermaid-0 .relationshipLine{stroke:#666;}#mermaid-0 .entityTitleText{text-anchor:middle;font-size:18px;fill:#000000;}#mermaid-0 :root{--mermaid-font-family:"trebuchet ms",verdana,arial,sans-serif;}</style><g/><defs><marker orient="auto" markerHeight="18" markerWidth="18" refY="9" refX="0" id="ONLY_ONE_START"><path d="M9,0 L9,18 M15,0 L15,18" fill="none" stroke="gray"/></marker></defs><defs><marker orient="auto" markerHeight="18" markerWidth="18" refY="9" refX="18" id="ONLY_ONE_END"><path d="M3,0 L3,18 M9,0 L9,18" fill="none" stroke="gray"/></marker></defs><defs><marker orient="auto" markerHeight="18" markerWidth="30" refY="9" refX="0" id="ZERO_OR_ONE_START"><circle r="6" cy="9" cx="21" fill="white" stroke="gray"/><path d="M9,0 L9,18" fill="none" stroke="gray"/></marker></defs><defs><marker orient="auto" markerHeight="18" markerWidth="30" refY="9" refX="30" id="ZERO_OR_ONE_END"><circle r="6" cy="9" cx="9" fill="white" stroke="gray"/><path d="M21,0 L21,18" fill="none" stroke="gray"/></marker></defs><defs><marker orient="auto" markerHeight="36" markerWidth="45" refY="18" refX="18" id="ONE_OR_MORE_START"><path d="M0,18 Q 18,0 36,18 Q 18,36 0,18 M42,9 L42,27" fill="none" stroke="gray"/></marker></defs><defs><marker orient="auto" markerHeight="36" markerWidth="45" refY="18" refX="27" id="ONE_OR_MORE_END"><path d="M3,9 L3,27 M9,18 Q27,0 45,18 Q27,36 9,18" fill="none" stroke="gray"/></marker></defs><defs><marker orient="auto" markerHeight="36" markerWidth="57" refY="18" refX="18" id="ZERO_OR_MORE_START"><circle r="6" cy="18" cx="48" fill="white" stroke="gray"/><path d="M0,18 Q18,0 36,18 Q18,36 0,18" fill="none" stroke="gray"/></marker></defs><defs><marker orient="auto" markerHeight="36" markerWidth="57" refY="18" refX="39" id="ZERO_OR_MORE_END"><circle r="6" cy="18" cx="9" fill="white" stroke="gray"/><path d="M21,18 Q39,0 57,18 Q39,36 21,18" fill="none" stroke="gray"/></marker></defs><path style="stroke: gray; fill: none;" marker-start="url(#ZERO_OR_MORE_START)" marker-end="url(#ZERO_OR_MORE_END)" d="M97.29757690429688,242L97.29757690429688,257.6666666666667C97.29757690429688,273.3333333333333,97.29757690429688,304.6666666666667,112.12096725404263,335.4166666666667C126.94435760378838,366.1666666666667,156.59113830327988,396.3333333333333,171.41452865302563,411.4166666666667L186.23791900277138,426.5" class="er relationshipLine"/><path style="stroke: gray; fill: none;" marker-start="url(#ZERO_OR_MORE_START)" marker-end="url(#ZERO_OR_MORE_END)" d="M613.7957930434598,286L609.2420589815289,294.3333333333333C604.6883249195981,302.6666666666667,595.5808567957366,319.3333333333333,591.0271227338058,342.75C586.473388671875,366.1666666666667,586.473388671875,396.3333333333333,586.473388671875,411.4166666666667L586.473388671875,426.5" class="er relationshipLine"/><path style="stroke: gray; fill: none;" marker-start="url(#ZERO_OR_MORE_START)" marker-end="url(#ZERO_OR_MORE_END)" d="M759.1509843002902,286L763.7047183622211,294.3333333333333C768.2584524241519,302.6666666666667,777.3659205480135,319.3333333333333,781.9196546099442,342.75C786.473388671875,366.1666666666667,786.473388671875,396.3333333333333,786.473388671875,411.4166666666667L786.473388671875,426.5" class="er relationshipLine"/><path style="stroke: gray; fill: none;" marker-start="url(#ZERO_OR_MORE_START)" marker-end="url(#ZERO_OR_MORE_END)" d="M348.88572692871094,209L348.88572692871094,230.16666666666666C348.88572692871094,251.33333333333334,348.88572692871094,293.6666666666667,334.0623365789652,329.9166666666667C319.23894622921944,366.1666666666667,289.59216552972794,396.3333333333333,274.7687751799822,411.4166666666667L259.94538483023643,426.5" class="er relationshipLine"/><path style="stroke: gray; fill: none;" marker-start="url(#ZERO_OR_MORE_START)" marker-end="url(#ZERO_OR_ONE_END)" d="M1042.2926635742188,242L1042.2926635742188,257.6666666666667C1042.2926635742188,273.3333333333333,1042.2926635742188,304.6666666666667,1042.2926635742188,328.6666666666667C1042.2926635742188,352.6666666666667,1042.2926635742188,369.3333333333333,1042.2926635742188,377.6666666666667L1042.2926635742188,386" class="er relationshipLine"/><g transform="translate(20,64 )" id="entity-users-fb81e30f-4eed-4b1c-b9cc-6d126d5aa787"><rect height="178" width="154.59515380859375" y="0" x="0" class="er entityBox"/><text style="dominant-baseline: middle; text-anchor: middle; font-size: 12px;" transform="translate(77.29757690429688,12)" y="0" x="0" id="text-entity-users-fb81e30f-4eed-4b1c-b9cc-6d126d5aa787" class="er entityLabel">users</text><rect height="22" width="54.04840087890625" y="24" x="0" class="er attributeBoxOdd"/><text style="dominant-baseline: middle; font-size: 10.2px;" transform="translate(5,35)" y="0" x="0" id="text-entity-users-fb81e30f-4eed-4b1c-b9cc-6d126d5aa787-attr-1-type" class="er entityLabel">String</text><rect height="22" width="78.86602783203125" y="24" x="54.04840087890625" class="er attributeBoxOdd"/><text style="dominant-baseline: middle; font-size: 10.2px;" transform="translate(59.04840087890625,35)" y="0" x="0" id="text-entity-users-fb81e30f-4eed-4b1c-b9cc-6d126d5aa787-attr-1-name" class="er entityLabel">id</text><rect height="22" width="21.68072509765625" y="24" x="132.9144287109375" class="er attributeBoxOdd"/><text style="dominant-baseline: middle; font-size: 10.2px;" transform="translate(137.9144287109375,35)" y="0" x="0" id="text-entity-users-fb81e30f-4eed-4b1c-b9cc-6d126d5aa787-attr-1-key" class="er entityLabel">PK</text><rect height="22" width="54.04840087890625" y="46" x="0" class="er attributeBoxEven"/><text style="dominant-baseline: middle; font-size: 10.2px;" transform="translate(5,57)" y="0" x="0" id="text-entity-users-fb81e30f-4eed-4b1c-b9cc-6d126d5aa787-attr-2-type" class="er entityLabel">String</text><rect height="22" width="78.86602783203125" y="46" x="54.04840087890625" class="er attributeBoxEven"/><text style="dominant-baseline: middle; font-size: 10.2px;" transform="translate(59.04840087890625,57)" y="0" x="0" id="text-entity-users-fb81e30f-4eed-4b1c-b9cc-6d126d5aa787-attr-2-name" class="er entityLabel">name</text><rect height="22" width="21.68072509765625" y="46" x="132.9144287109375" class="er attributeBoxEven"/><text style="dominant-baseline: middle; font-size: 10.2px;" transform="translate(137.9144287109375,57)" y="0" x="0" id="text-entity-users-fb81e30f-4eed-4b1c-b9cc-6d126d5aa787-attr-2-key" class="er entityLabel"/><rect height="22" width="54.04840087890625" y="68" x="0" class="er attributeBoxOdd"/><text style="dominant-baseline: middle; font-size: 10.2px;" transform="translate(5,79)" y="0" x="0" id="text-entity-users-fb81e30f-4eed-4b1c-b9cc-6d126d5aa787-attr-3-type" class="er entityLabel">String</text><rect height="22" width="78.86602783203125" y="68" x="54.04840087890625" class="er attributeBoxOdd"/><text style="dominant-baseline: middle; font-size: 10.2px;" transform="translate(59.04840087890625,79)" y="0" x="0" id="text-entity-users-fb81e30f-4eed-4b1c-b9cc-6d126d5aa787-attr-3-name" class="er entityLabel">email</text><rect height="22" width="21.68072509765625" y="68" x="132.9144287109375" class="er attributeBoxOdd"/><text style="dominant-baseline: middle; font-size: 10.2px;" transform="translate(137.9144287109375,79)" y="0" x="0" id="text-entity-users-fb81e30f-4eed-4b1c-b9cc-6d126d5aa787-attr-3-key" class="er entityLabel"/><rect height="22" width="54.04840087890625" y="90" x="0" class="er attributeBoxEven"/><text style="dominant-baseline: middle; font-size: 10.2px;" transform="translate(5,101)" y="0" x="0" id="text-entity-users-fb81e30f-4eed-4b1c-b9cc-6d126d5aa787-attr-4-type" class="er entityLabel">String</text><rect height="22" width="78.86602783203125" y="90" x="54.04840087890625" class="er attributeBoxEven"/><text style="dominant-baseline: middle; font-size: 10.2px;" transform="translate(59.04840087890625,101)" y="0" x="0" id="text-entity-users-fb81e30f-4eed-4b1c-b9cc-6d126d5aa787-attr-4-name" class="er entityLabel">profile_picture</text><rect height="22" width="21.68072509765625" y="90" x="132.9144287109375" class="er attributeBoxEven"/><text style="dominant-baseline: middle; font-size: 10.2px;" transform="translate(137.9144287109375,101)" y="0" x="0" id="text-entity-users-fb81e30f-4eed-4b1c-b9cc-6d126d5aa787-attr-4-key" class="er entityLabel"/><rect height="22" width="54.04840087890625" y="112" x="0" class="er attributeBoxOdd"/><text style="dominant-baseline: middle; font-size: 10.2px;" transform="translate(5,123)" y="0" x="0" id="text-entity-users-fb81e30f-4eed-4b1c-b9cc-6d126d5aa787-attr-5-type" class="er entityLabel">Boolean</text><rect height="22" width="78.86602783203125" y="112" x="54.04840087890625" class="er attributeBoxOdd"/><text style="dominant-baseline: middle; font-size: 10.2px;" transform="translate(59.04840087890625,123)" y="0" x="0" id="text-entity-users-fb81e30f-4eed-4b1c-b9cc-6d126d5aa787-attr-5-name" class="er entityLabel">subscribe</text><rect height="22" width="21.68072509765625" y="112" x="132.9144287109375" class="er attributeBoxOdd"/><text style="dominant-baseline: middle; font-size: 10.2px;" transform="translate(137.9144287109375,123)" y="0" x="0" id="text-entity-users-fb81e30f-4eed-4b1c-b9cc-6d126d5aa787-attr-5-key" class="er entityLabel"/><rect height="22" width="54.04840087890625" y="134" x="0" class="er attributeBoxEven"/><text style="dominant-baseline: middle; font-size: 10.2px;" transform="translate(5,145)" y="0" x="0" id="text-entity-users-fb81e30f-4eed-4b1c-b9cc-6d126d5aa787-attr-6-type" class="er entityLabel">DateTime</text><rect height="22" width="78.86602783203125" y="134" x="54.04840087890625" class="er attributeBoxEven"/><text style="dominant-baseline: middle; font-size: 10.2px;" transform="translate(59.04840087890625,145)" y="0" x="0" id="text-entity-users-fb81e30f-4eed-4b1c-b9cc-6d126d5aa787-attr-6-name" class="er entityLabel">createdAt</text><rect height="22" width="21.68072509765625" y="134" x="132.9144287109375" class="er attributeBoxEven"/><text style="dominant-baseline: middle; font-size: 10.2px;" transform="translate(137.9144287109375,145)" y="0" x="0" id="text-entity-users-fb81e30f-4eed-4b1c-b9cc-6d126d5aa787-attr-6-key" class="er entityLabel"/><rect height="22" width="54.04840087890625" y="156" x="0" class="er attributeBoxOdd"/><text style="dominant-baseline: middle; font-size: 10.2px;" transform="translate(5,167)" y="0" x="0" id="text-entity-users-fb81e30f-4eed-4b1c-b9cc-6d126d5aa787-attr-7-type" class="er entityLabel">DateTime</text><rect height="22" width="78.86602783203125" y="156" x="54.04840087890625" class="er attributeBoxOdd"/><text style="dominant-baseline: middle; font-size: 10.2px;" transform="translate(59.04840087890625,167)" y="0" x="0" id="text-entity-users-fb81e30f-4eed-4b1c-b9cc-6d126d5aa787-attr-7-name" class="er entityLabel">updatedAt</text><rect height="22" width="21.68072509765625" y="156" x="132.9144287109375" class="er attributeBoxOdd"/><text style="dominant-baseline: middle; font-size: 10.2px;" transform="translate(137.9144287109375,167)" y="0" x="0" id="text-entity-users-fb81e30f-4eed-4b1c-b9cc-6d126d5aa787-attr-7-key" class="er entityLabel"/></g><g transform="translate(585.5886383056641,20 )" id="entity-professionals-1d1168a9-1560-4b6a-aa2b-a60c65b6936c"><rect height="266" width="201.76950073242188" y="0" x="0" class="er entityBox"/><text style="dominant-baseline: middle; text-anchor: middle; font-size: 12px;" transform="translate(100.88475036621094,12)" y="0" x="0" id="text-entity-professionals-1d1168a9-1560-4b6a-aa2b-a60c65b6936c" class="er entityLabel">professionals</text><rect height="22" width="54.04840087890625" y="24" x="0" class="er attributeBoxOdd"/><text style="dominant-baseline: middle; font-size: 10.2px;" transform="translate(5,35)" y="0" x="0" id="text-entity-professionals-1d1168a9-1560-4b6a-aa2b-a60c65b6936c-attr-1-type" class="er entityLabel">String</text><rect height="22" width="78.86602783203125" y="24" x="54.04840087890625" class="er attributeBoxOdd"/><text style="dominant-baseline: middle; font-size: 10.2px;" transform="translate(59.04840087890625,35)" y="0" x="0" id="text-entity-professionals-1d1168a9-1560-4b6a-aa2b-a60c65b6936c-attr-1-name" class="er entityLabel">id</text><rect height="22" width="21.68072509765625" y="24" x="132.9144287109375" class="er attributeBoxOdd"/><text style="dominant-baseline: middle; font-size: 10.2px;" transform="translate(137.9144287109375,35)" y="0" x="0" id="text-entity-professionals-1d1168a9-1560-4b6a-aa2b-a60c65b6936c-attr-1-key" class="er entityLabel">PK</text><rect height="22" width="47.174346923828125" y="24" x="154.59515380859375" class="er attributeBoxOdd"/><text style="dominant-baseline: middle; font-size: 10.2px;" transform="translate(159.59515380859375,35)" y="0" x="0" id="text-entity-professionals-1d1168a9-1560-4b6a-aa2b-a60c65b6936c-attr-1-comment" class="er entityLabel"/><rect height="22" width="54.04840087890625" y="46" x="0" class="er attributeBoxEven"/><text style="dominant-baseline: middle; font-size: 10.2px;" transform="translate(5,57)" y="0" x="0" id="text-entity-professionals-1d1168a9-1560-4b6a-aa2b-a60c65b6936c-attr-2-type" class="er entityLabel">String</text><rect height="22" width="78.86602783203125" y="46" x="54.04840087890625" class="er attributeBoxEven"/><text style="dominant-baseline: middle; font-size: 10.2px;" transform="translate(59.04840087890625,57)" y="0" x="0" id="text-entity-professionals-1d1168a9-1560-4b6a-aa2b-a60c65b6936c-attr-2-name" class="er entityLabel">profile_picture</text><rect height="22" width="21.68072509765625" y="46" x="132.9144287109375" class="er attributeBoxEven"/><text style="dominant-baseline: middle; font-size: 10.2px;" transform="translate(137.9144287109375,57)" y="0" x="0" id="text-entity-professionals-1d1168a9-1560-4b6a-aa2b-a60c65b6936c-attr-2-key" class="er entityLabel"/><rect height="22" width="47.174346923828125" y="46" x="154.59515380859375" class="er attributeBoxEven"/><text style="dominant-baseline: middle; font-size: 10.2px;" transform="translate(159.59515380859375,57)" y="0" x="0" id="text-entity-professionals-1d1168a9-1560-4b6a-aa2b-a60c65b6936c-attr-2-comment" class="er entityLabel"/><rect height="22" width="54.04840087890625" y="68" x="0" class="er attributeBoxOdd"/><text style="dominant-baseline: middle; font-size: 10.2px;" transform="translate(5,79)" y="0" x="0" id="text-entity-professionals-1d1168a9-1560-4b6a-aa2b-a60c65b6936c-attr-3-type" class="er entityLabel">String</text><rect height="22" width="78.86602783203125" y="68" x="54.04840087890625" class="er attributeBoxOdd"/><text style="dominant-baseline: middle; font-size: 10.2px;" transform="translate(59.04840087890625,79)" y="0" x="0" id="text-entity-professionals-1d1168a9-1560-4b6a-aa2b-a60c65b6936c-attr-3-name" class="er entityLabel">name</text><rect height="22" width="21.68072509765625" y="68" x="132.9144287109375" class="er attributeBoxOdd"/><text style="dominant-baseline: middle; font-size: 10.2px;" transform="translate(137.9144287109375,79)" y="0" x="0" id="text-entity-professionals-1d1168a9-1560-4b6a-aa2b-a60c65b6936c-attr-3-key" class="er entityLabel"/><rect height="22" width="47.174346923828125" y="68" x="154.59515380859375" class="er attributeBoxOdd"/><text style="dominant-baseline: middle; font-size: 10.2px;" transform="translate(159.59515380859375,79)" y="0" x="0" id="text-entity-professionals-1d1168a9-1560-4b6a-aa2b-a60c65b6936c-attr-3-comment" class="er entityLabel"/><rect height="22" width="54.04840087890625" y="90" x="0" class="er attributeBoxEven"/><text style="dominant-baseline: middle; font-size: 10.2px;" transform="translate(5,101)" y="0" x="0" id="text-entity-professionals-1d1168a9-1560-4b6a-aa2b-a60c65b6936c-attr-4-type" class="er entityLabel">String</text><rect height="22" width="78.86602783203125" y="90" x="54.04840087890625" class="er attributeBoxEven"/><text style="dominant-baseline: middle; font-size: 10.2px;" transform="translate(59.04840087890625,101)" y="0" x="0" id="text-entity-professionals-1d1168a9-1560-4b6a-aa2b-a60c65b6936c-attr-4-name" class="er entityLabel">email</text><rect height="22" width="21.68072509765625" y="90" x="132.9144287109375" class="er attributeBoxEven"/><text style="dominant-baseline: middle; font-size: 10.2px;" transform="translate(137.9144287109375,101)" y="0" x="0" id="text-entity-professionals-1d1168a9-1560-4b6a-aa2b-a60c65b6936c-attr-4-key" class="er entityLabel"/><rect height="22" width="47.174346923828125" y="90" x="154.59515380859375" class="er attributeBoxEven"/><text style="dominant-baseline: middle; font-size: 10.2px;" transform="translate(159.59515380859375,101)" y="0" x="0" id="text-entity-professionals-1d1168a9-1560-4b6a-aa2b-a60c65b6936c-attr-4-comment" class="er entityLabel">nullable</text><rect height="22" width="54.04840087890625" y="112" x="0" class="er attributeBoxOdd"/><text style="dominant-baseline: middle; font-size: 10.2px;" transform="translate(5,123)" y="0" x="0" id="text-entity-professionals-1d1168a9-1560-4b6a-aa2b-a60c65b6936c-attr-5-type" class="er entityLabel">String</text><rect height="22" width="78.86602783203125" y="112" x="54.04840087890625" class="er attributeBoxOdd"/><text style="dominant-baseline: middle; font-size: 10.2px;" transform="translate(59.04840087890625,123)" y="0" x="0" id="text-entity-professionals-1d1168a9-1560-4b6a-aa2b-a60c65b6936c-attr-5-name" class="er entityLabel">state</text><rect height="22" width="21.68072509765625" y="112" x="132.9144287109375" class="er attributeBoxOdd"/><text style="dominant-baseline: middle; font-size: 10.2px;" transform="translate(137.9144287109375,123)" y="0" x="0" id="text-entity-professionals-1d1168a9-1560-4b6a-aa2b-a60c65b6936c-attr-5-key" class="er entityLabel"/><rect height="22" width="47.174346923828125" y="112" x="154.59515380859375" class="er attributeBoxOdd"/><text style="dominant-baseline: middle; font-size: 10.2px;" transform="translate(159.59515380859375,123)" y="0" x="0" id="text-entity-professionals-1d1168a9-1560-4b6a-aa2b-a60c65b6936c-attr-5-comment" class="er entityLabel"/><rect height="22" width="54.04840087890625" y="134" x="0" class="er attributeBoxEven"/><text style="dominant-baseline: middle; font-size: 10.2px;" transform="translate(5,145)" y="0" x="0" id="text-entity-professionals-1d1168a9-1560-4b6a-aa2b-a60c65b6936c-attr-6-type" class="er entityLabel">String</text><rect height="22" width="78.86602783203125" y="134" x="54.04840087890625" class="er attributeBoxEven"/><text style="dominant-baseline: middle; font-size: 10.2px;" transform="translate(59.04840087890625,145)" y="0" x="0" id="text-entity-professionals-1d1168a9-1560-4b6a-aa2b-a60c65b6936c-attr-6-name" class="er entityLabel">city</text><rect height="22" width="21.68072509765625" y="134" x="132.9144287109375" class="er attributeBoxEven"/><text style="dominant-baseline: middle; font-size: 10.2px;" transform="translate(137.9144287109375,145)" y="0" x="0" id="text-entity-professionals-1d1168a9-1560-4b6a-aa2b-a60c65b6936c-attr-6-key" class="er entityLabel"/><rect height="22" width="47.174346923828125" y="134" x="154.59515380859375" class="er attributeBoxEven"/><text style="dominant-baseline: middle; font-size: 10.2px;" transform="translate(159.59515380859375,145)" y="0" x="0" id="text-entity-professionals-1d1168a9-1560-4b6a-aa2b-a60c65b6936c-attr-6-comment" class="er entityLabel"/><rect height="22" width="54.04840087890625" y="156" x="0" class="er attributeBoxOdd"/><text style="dominant-baseline: middle; font-size: 10.2px;" transform="translate(5,167)" y="0" x="0" id="text-entity-professionals-1d1168a9-1560-4b6a-aa2b-a60c65b6936c-attr-7-type" class="er entityLabel">String</text><rect height="22" width="78.86602783203125" y="156" x="54.04840087890625" class="er attributeBoxOdd"/><text style="dominant-baseline: middle; font-size: 10.2px;" transform="translate(59.04840087890625,167)" y="0" x="0" id="text-entity-professionals-1d1168a9-1560-4b6a-aa2b-a60c65b6936c-attr-7-name" class="er entityLabel">biography</text><rect height="22" width="21.68072509765625" y="156" x="132.9144287109375" class="er attributeBoxOdd"/><text style="dominant-baseline: middle; font-size: 10.2px;" transform="translate(137.9144287109375,167)" y="0" x="0" id="text-entity-professionals-1d1168a9-1560-4b6a-aa2b-a60c65b6936c-attr-7-key" class="er entityLabel"/><rect height="22" width="47.174346923828125" y="156" x="154.59515380859375" class="er attributeBoxOdd"/><text style="dominant-baseline: middle; font-size: 10.2px;" transform="translate(159.59515380859375,167)" y="0" x="0" id="text-entity-professionals-1d1168a9-1560-4b6a-aa2b-a60c65b6936c-attr-7-comment" class="er entityLabel"/><rect height="22" width="54.04840087890625" y="178" x="0" class="er attributeBoxEven"/><text style="dominant-baseline: middle; font-size: 10.2px;" transform="translate(5,189)" y="0" x="0" id="text-entity-professionals-1d1168a9-1560-4b6a-aa2b-a60c65b6936c-attr-8-type" class="er entityLabel">String</text><rect height="22" width="78.86602783203125" y="178" x="54.04840087890625" class="er attributeBoxEven"/><text style="dominant-baseline: middle; font-size: 10.2px;" transform="translate(59.04840087890625,189)" y="0" x="0" id="text-entity-professionals-1d1168a9-1560-4b6a-aa2b-a60c65b6936c-attr-8-name" class="er entityLabel">whatsapp</text><rect height="22" width="21.68072509765625" y="178" x="132.9144287109375" class="er attributeBoxEven"/><text style="dominant-baseline: middle; font-size: 10.2px;" transform="translate(137.9144287109375,189)" y="0" x="0" id="text-entity-professionals-1d1168a9-1560-4b6a-aa2b-a60c65b6936c-attr-8-key" class="er entityLabel"/><rect height="22" width="47.174346923828125" y="178" x="154.59515380859375" class="er attributeBoxEven"/><text style="dominant-baseline: middle; font-size: 10.2px;" transform="translate(159.59515380859375,189)" y="0" x="0" id="text-entity-professionals-1d1168a9-1560-4b6a-aa2b-a60c65b6936c-attr-8-comment" class="er entityLabel">nullable</text><rect height="22" width="54.04840087890625" y="200" x="0" class="er attributeBoxOdd"/><text style="dominant-baseline: middle; font-size: 10.2px;" transform="translate(5,211)" y="0" x="0" id="text-entity-professionals-1d1168a9-1560-4b6a-aa2b-a60c65b6936c-attr-9-type" class="er entityLabel">String</text><rect height="22" width="78.86602783203125" y="200" x="54.04840087890625" class="er attributeBoxOdd"/><text style="dominant-baseline: middle; font-size: 10.2px;" transform="translate(59.04840087890625,211)" y="0" x="0" id="text-entity-professionals-1d1168a9-1560-4b6a-aa2b-a60c65b6936c-attr-9-name" class="er entityLabel">instagram</text><rect height="22" width="21.68072509765625" y="200" x="132.9144287109375" class="er attributeBoxOdd"/><text style="dominant-baseline: middle; font-size: 10.2px;" transform="translate(137.9144287109375,211)" y="0" x="0" id="text-entity-professionals-1d1168a9-1560-4b6a-aa2b-a60c65b6936c-attr-9-key" class="er entityLabel"/><rect height="22" width="47.174346923828125" y="200" x="154.59515380859375" class="er attributeBoxOdd"/><text style="dominant-baseline: middle; font-size: 10.2px;" transform="translate(159.59515380859375,211)" y="0" x="0" id="text-entity-professionals-1d1168a9-1560-4b6a-aa2b-a60c65b6936c-attr-9-comment" class="er entityLabel">nullable</text><rect height="22" width="54.04840087890625" y="222" x="0" class="er attributeBoxEven"/><text style="dominant-baseline: middle; font-size: 10.2px;" transform="translate(5,233)" y="0" x="0" id="text-entity-professionals-1d1168a9-1560-4b6a-aa2b-a60c65b6936c-attr-10-type" class="er entityLabel">DateTime</text><rect height="22" width="78.86602783203125" y="222" x="54.04840087890625" class="er attributeBoxEven"/><text style="dominant-baseline: middle; font-size: 10.2px;" transform="translate(59.04840087890625,233)" y="0" x="0" id="text-entity-professionals-1d1168a9-1560-4b6a-aa2b-a60c65b6936c-attr-10-name" class="er entityLabel">createdAt</text><rect height="22" width="21.68072509765625" y="222" x="132.9144287109375" class="er attributeBoxEven"/><text style="dominant-baseline: middle; font-size: 10.2px;" transform="translate(137.9144287109375,233)" y="0" x="0" id="text-entity-professionals-1d1168a9-1560-4b6a-aa2b-a60c65b6936c-attr-10-key" class="er entityLabel"/><rect height="22" width="47.174346923828125" y="222" x="154.59515380859375" class="er attributeBoxEven"/><text style="dominant-baseline: middle; font-size: 10.2px;" transform="translate(159.59515380859375,233)" y="0" x="0" id="text-entity-professionals-1d1168a9-1560-4b6a-aa2b-a60c65b6936c-attr-10-comment" class="er entityLabel"/><rect height="22" width="54.04840087890625" y="244" x="0" class="er attributeBoxOdd"/><text style="dominant-baseline: middle; font-size: 10.2px;" transform="translate(5,255)" y="0" x="0" id="text-entity-professionals-1d1168a9-1560-4b6a-aa2b-a60c65b6936c-attr-11-type" class="er entityLabel">DateTime</text><rect height="22" width="78.86602783203125" y="244" x="54.04840087890625" class="er attributeBoxOdd"/><text style="dominant-baseline: middle; font-size: 10.2px;" transform="translate(59.04840087890625,255)" y="0" x="0" id="text-entity-professionals-1d1168a9-1560-4b6a-aa2b-a60c65b6936c-attr-11-name" class="er entityLabel">updatedAt</text><rect height="22" width="21.68072509765625" y="244" x="132.9144287109375" class="er attributeBoxOdd"/><text style="dominant-baseline: middle; font-size: 10.2px;" transform="translate(137.9144287109375,255)" y="0" x="0" id="text-entity-professionals-1d1168a9-1560-4b6a-aa2b-a60c65b6936c-attr-11-key" class="er entityLabel"/><rect height="22" width="47.174346923828125" y="244" x="154.59515380859375" class="er attributeBoxOdd"/><text style="dominant-baseline: middle; font-size: 10.2px;" transform="translate(159.59515380859375,255)" y="0" x="0" id="text-entity-professionals-1d1168a9-1560-4b6a-aa2b-a60c65b6936c-attr-11-comment" class="er entityLabel"/></g><g transform="translate(274.59515380859375,97 )" id="entity-services-3ddfeb09-c946-47cf-b95d-bc553251f0af"><rect height="112" width="148.58114624023438" y="0" x="0" class="er entityBox"/><text style="dominant-baseline: middle; text-anchor: middle; font-size: 12px;" transform="translate(74.29057312011719,12)" y="0" x="0" id="text-entity-services-3ddfeb09-c946-47cf-b95d-bc553251f0af" class="er entityLabel">services</text><rect height="22" width="54.04840087890625" y="24" x="0" class="er attributeBoxOdd"/><text style="dominant-baseline: middle; font-size: 10.2px;" transform="translate(5,35)" y="0" x="0" id="text-entity-services-3ddfeb09-c946-47cf-b95d-bc553251f0af-attr-1-type" class="er entityLabel">String</text><rect height="22" width="72.85202026367188" y="24" x="54.04840087890625" class="er attributeBoxOdd"/><text style="dominant-baseline: middle; font-size: 10.2px;" transform="translate(59.04840087890625,35)" y="0" x="0" id="text-entity-services-3ddfeb09-c946-47cf-b95d-bc553251f0af-attr-1-name" class="er entityLabel">id</text><rect height="22" width="21.68072509765625" y="24" x="126.90042114257812" class="er attributeBoxOdd"/><text style="dominant-baseline: middle; font-size: 10.2px;" transform="translate(131.90042114257812,35)" y="0" x="0" id="text-entity-services-3ddfeb09-c946-47cf-b95d-bc553251f0af-attr-1-key" class="er entityLabel">PK</text><rect height="22" width="54.04840087890625" y="46" x="0" class="er attributeBoxEven"/><text style="dominant-baseline: middle; font-size: 10.2px;" transform="translate(5,57)" y="0" x="0" id="text-entity-services-3ddfeb09-c946-47cf-b95d-bc553251f0af-attr-2-type" class="er entityLabel">String</text><rect height="22" width="72.85202026367188" y="46" x="54.04840087890625" class="er attributeBoxEven"/><text style="dominant-baseline: middle; font-size: 10.2px;" transform="translate(59.04840087890625,57)" y="0" x="0" id="text-entity-services-3ddfeb09-c946-47cf-b95d-bc553251f0af-attr-2-name" class="er entityLabel">service_name</text><rect height="22" width="21.68072509765625" y="46" x="126.90042114257812" class="er attributeBoxEven"/><text style="dominant-baseline: middle; font-size: 10.2px;" transform="translate(131.90042114257812,57)" y="0" x="0" id="text-entity-services-3ddfeb09-c946-47cf-b95d-bc553251f0af-attr-2-key" class="er entityLabel"/><rect height="22" width="54.04840087890625" y="68" x="0" class="er attributeBoxOdd"/><text style="dominant-baseline: middle; font-size: 10.2px;" transform="translate(5,79)" y="0" x="0" id="text-entity-services-3ddfeb09-c946-47cf-b95d-bc553251f0af-attr-3-type" class="er entityLabel">DateTime</text><rect height="22" width="72.85202026367188" y="68" x="54.04840087890625" class="er attributeBoxOdd"/><text style="dominant-baseline: middle; font-size: 10.2px;" transform="translate(59.04840087890625,79)" y="0" x="0" id="text-entity-services-3ddfeb09-c946-47cf-b95d-bc553251f0af-attr-3-name" class="er entityLabel">createdAt</text><rect height="22" width="21.68072509765625" y="68" x="126.90042114257812" class="er attributeBoxOdd"/><text style="dominant-baseline: middle; font-size: 10.2px;" transform="translate(131.90042114257812,79)" y="0" x="0" id="text-entity-services-3ddfeb09-c946-47cf-b95d-bc553251f0af-attr-3-key" class="er entityLabel"/><rect height="22" width="54.04840087890625" y="90" x="0" class="er attributeBoxEven"/><text style="dominant-baseline: middle; font-size: 10.2px;" transform="translate(5,101)" y="0" x="0" id="text-entity-services-3ddfeb09-c946-47cf-b95d-bc553251f0af-attr-4-type" class="er entityLabel">DateTime</text><rect height="22" width="72.85202026367188" y="90" x="54.04840087890625" class="er attributeBoxEven"/><text style="dominant-baseline: middle; font-size: 10.2px;" transform="translate(59.04840087890625,101)" y="0" x="0" id="text-entity-services-3ddfeb09-c946-47cf-b95d-bc553251f0af-attr-4-name" class="er entityLabel">updatedAt</text><rect height="22" width="21.68072509765625" y="90" x="126.90042114257812" class="er attributeBoxEven"/><text style="dominant-baseline: middle; font-size: 10.2px;" transform="translate(131.90042114257812,101)" y="0" x="0" id="text-entity-services-3ddfeb09-c946-47cf-b95d-bc553251f0af-attr-4-key" class="er entityLabel"/></g><g transform="translate(972.7718505859375,386 )" id="entity-admetadatas-8628c223-1575-4db0-9ccb-67c02a959ce4"><rect height="156" width="139.0416259765625" y="0" x="0" class="er entityBox"/><text style="dominant-baseline: middle; text-anchor: middle; font-size: 12px;" transform="translate(69.52081298828125,12)" y="0" x="0" id="text-entity-admetadatas-8628c223-1575-4db0-9ccb-67c02a959ce4" class="er entityLabel">ad_metadatas</text><rect height="22" width="54.04840087890625" y="24" x="0" class="er attributeBoxOdd"/><text style="dominant-baseline: middle; font-size: 10.2px;" transform="translate(5,35)" y="0" x="0" id="text-entity-admetadatas-8628c223-1575-4db0-9ccb-67c02a959ce4-attr-1-type" class="er entityLabel">String</text><rect height="22" width="63.3125" y="24" x="54.04840087890625" class="er attributeBoxOdd"/><text style="dominant-baseline: middle; font-size: 10.2px;" transform="translate(59.04840087890625,35)" y="0" x="0" id="text-entity-admetadatas-8628c223-1575-4db0-9ccb-67c02a959ce4-attr-1-name" class="er entityLabel">id</text><rect height="22" width="21.68072509765625" y="24" x="117.36090087890625" class="er attributeBoxOdd"/><text style="dominant-baseline: middle; font-size: 10.2px;" transform="translate(122.36090087890625,35)" y="0" x="0" id="text-entity-admetadatas-8628c223-1575-4db0-9ccb-67c02a959ce4-attr-1-key" class="er entityLabel">PK</text><rect height="22" width="54.04840087890625" y="46" x="0" class="er attributeBoxEven"/><text style="dominant-baseline: middle; font-size: 10.2px;" transform="translate(5,57)" y="0" x="0" id="text-entity-admetadatas-8628c223-1575-4db0-9ccb-67c02a959ce4-attr-2-type" class="er entityLabel">String</text><rect height="22" width="63.3125" y="46" x="54.04840087890625" class="er attributeBoxEven"/><text style="dominant-baseline: middle; font-size: 10.2px;" transform="translate(59.04840087890625,57)" y="0" x="0" id="text-entity-admetadatas-8628c223-1575-4db0-9ccb-67c02a959ce4-attr-2-name" class="er entityLabel">name</text><rect height="22" width="21.68072509765625" y="46" x="117.36090087890625" class="er attributeBoxEven"/><text style="dominant-baseline: middle; font-size: 10.2px;" transform="translate(122.36090087890625,57)" y="0" x="0" id="text-entity-admetadatas-8628c223-1575-4db0-9ccb-67c02a959ce4-attr-2-key" class="er entityLabel"/><rect height="22" width="54.04840087890625" y="68" x="0" class="er attributeBoxOdd"/><text style="dominant-baseline: middle; font-size: 10.2px;" transform="translate(5,79)" y="0" x="0" id="text-entity-admetadatas-8628c223-1575-4db0-9ccb-67c02a959ce4-attr-3-type" class="er entityLabel">String</text><rect height="22" width="63.3125" y="68" x="54.04840087890625" class="er attributeBoxOdd"/><text style="dominant-baseline: middle; font-size: 10.2px;" transform="translate(59.04840087890625,79)" y="0" x="0" id="text-entity-admetadatas-8628c223-1575-4db0-9ccb-67c02a959ce4-attr-3-name" class="er entityLabel">logo_url</text><rect height="22" width="21.68072509765625" y="68" x="117.36090087890625" class="er attributeBoxOdd"/><text style="dominant-baseline: middle; font-size: 10.2px;" transform="translate(122.36090087890625,79)" y="0" x="0" id="text-entity-admetadatas-8628c223-1575-4db0-9ccb-67c02a959ce4-attr-3-key" class="er entityLabel"/><rect height="22" width="54.04840087890625" y="90" x="0" class="er attributeBoxEven"/><text style="dominant-baseline: middle; font-size: 10.2px;" transform="translate(5,101)" y="0" x="0" id="text-entity-admetadatas-8628c223-1575-4db0-9ccb-67c02a959ce4-attr-4-type" class="er entityLabel">String</text><rect height="22" width="63.3125" y="90" x="54.04840087890625" class="er attributeBoxEven"/><text style="dominant-baseline: middle; font-size: 10.2px;" transform="translate(59.04840087890625,101)" y="0" x="0" id="text-entity-admetadatas-8628c223-1575-4db0-9ccb-67c02a959ce4-attr-4-name" class="er entityLabel">website_url</text><rect height="22" width="21.68072509765625" y="90" x="117.36090087890625" class="er attributeBoxEven"/><text style="dominant-baseline: middle; font-size: 10.2px;" transform="translate(122.36090087890625,101)" y="0" x="0" id="text-entity-admetadatas-8628c223-1575-4db0-9ccb-67c02a959ce4-attr-4-key" class="er entityLabel"/><rect height="22" width="54.04840087890625" y="112" x="0" class="er attributeBoxOdd"/><text style="dominant-baseline: middle; font-size: 10.2px;" transform="translate(5,123)" y="0" x="0" id="text-entity-admetadatas-8628c223-1575-4db0-9ccb-67c02a959ce4-attr-5-type" class="er entityLabel">DateTime</text><rect height="22" width="63.3125" y="112" x="54.04840087890625" class="er attributeBoxOdd"/><text style="dominant-baseline: middle; font-size: 10.2px;" transform="translate(59.04840087890625,123)" y="0" x="0" id="text-entity-admetadatas-8628c223-1575-4db0-9ccb-67c02a959ce4-attr-5-name" class="er entityLabel">createdAt</text><rect height="22" width="21.68072509765625" y="112" x="117.36090087890625" class="er attributeBoxOdd"/><text style="dominant-baseline: middle; font-size: 10.2px;" transform="translate(122.36090087890625,123)" y="0" x="0" id="text-entity-admetadatas-8628c223-1575-4db0-9ccb-67c02a959ce4-attr-5-key" class="er entityLabel"/><rect height="22" width="54.04840087890625" y="134" x="0" class="er attributeBoxEven"/><text style="dominant-baseline: middle; font-size: 10.2px;" transform="translate(5,145)" y="0" x="0" id="text-entity-admetadatas-8628c223-1575-4db0-9ccb-67c02a959ce4-attr-6-type" class="er entityLabel">DateTime</text><rect height="22" width="63.3125" y="134" x="54.04840087890625" class="er attributeBoxEven"/><text style="dominant-baseline: middle; font-size: 10.2px;" transform="translate(59.04840087890625,145)" y="0" x="0" id="text-entity-admetadatas-8628c223-1575-4db0-9ccb-67c02a959ce4-attr-6-name" class="er entityLabel">updatedAt</text><rect height="22" width="21.68072509765625" y="134" x="117.36090087890625" class="er attributeBoxEven"/><text style="dominant-baseline: middle; font-size: 10.2px;" transform="translate(122.36090087890625,145)" y="0" x="0" id="text-entity-admetadatas-8628c223-1575-4db0-9ccb-67c02a959ce4-attr-6-key" class="er entityLabel"/></g><g transform="translate(951.0596771240234,64 )" id="entity-articles-3c75e384-a1f2-4333-967b-7ac4bf9cbeae"><rect height="178" width="182.46597290039062" y="0" x="0" class="er entityBox"/><text style="dominant-baseline: middle; text-anchor: middle; font-size: 12px;" transform="translate(91.23298645019531,12)" y="0" x="0" id="text-entity-articles-3c75e384-a1f2-4333-967b-7ac4bf9cbeae" class="er entityLabel">articles</text><rect height="22" width="54.04840087890625" y="24" x="0" class="er attributeBoxOdd"/><text style="dominant-baseline: middle; font-size: 10.2px;" transform="translate(5,35)" y="0" x="0" id="text-entity-articles-3c75e384-a1f2-4333-967b-7ac4bf9cbeae-attr-1-type" class="er entityLabel">String</text><rect height="22" width="59.5625" y="24" x="54.04840087890625" class="er attributeBoxOdd"/><text style="dominant-baseline: middle; font-size: 10.2px;" transform="translate(59.04840087890625,35)" y="0" x="0" id="text-entity-articles-3c75e384-a1f2-4333-967b-7ac4bf9cbeae-attr-1-name" class="er entityLabel">id</text><rect height="22" width="21.68072509765625" y="24" x="113.61090087890625" class="er attributeBoxOdd"/><text style="dominant-baseline: middle; font-size: 10.2px;" transform="translate(118.61090087890625,35)" y="0" x="0" id="text-entity-articles-3c75e384-a1f2-4333-967b-7ac4bf9cbeae-attr-1-key" class="er entityLabel">PK</text><rect height="22" width="47.174346923828125" y="24" x="135.2916259765625" class="er attributeBoxOdd"/><text style="dominant-baseline: middle; font-size: 10.2px;" transform="translate(140.2916259765625,35)" y="0" x="0" id="text-entity-articles-3c75e384-a1f2-4333-967b-7ac4bf9cbeae-attr-1-comment" class="er entityLabel"/><rect height="22" width="54.04840087890625" y="46" x="0" class="er attributeBoxEven"/><text style="dominant-baseline: middle; font-size: 10.2px;" transform="translate(5,57)" y="0" x="0" id="text-entity-articles-3c75e384-a1f2-4333-967b-7ac4bf9cbeae-attr-2-type" class="er entityLabel">String</text><rect height="22" width="59.5625" y="46" x="54.04840087890625" class="er attributeBoxEven"/><text style="dominant-baseline: middle; font-size: 10.2px;" transform="translate(59.04840087890625,57)" y="0" x="0" id="text-entity-articles-3c75e384-a1f2-4333-967b-7ac4bf9cbeae-attr-2-name" class="er entityLabel">slug</text><rect height="22" width="21.68072509765625" y="46" x="113.61090087890625" class="er attributeBoxEven"/><text style="dominant-baseline: middle; font-size: 10.2px;" transform="translate(118.61090087890625,57)" y="0" x="0" id="text-entity-articles-3c75e384-a1f2-4333-967b-7ac4bf9cbeae-attr-2-key" class="er entityLabel"/><rect height="22" width="47.174346923828125" y="46" x="135.2916259765625" class="er attributeBoxEven"/><text style="dominant-baseline: middle; font-size: 10.2px;" transform="translate(140.2916259765625,57)" y="0" x="0" id="text-entity-articles-3c75e384-a1f2-4333-967b-7ac4bf9cbeae-attr-2-comment" class="er entityLabel"/><rect height="22" width="54.04840087890625" y="68" x="0" class="er attributeBoxOdd"/><text style="dominant-baseline: middle; font-size: 10.2px;" transform="translate(5,79)" y="0" x="0" id="text-entity-articles-3c75e384-a1f2-4333-967b-7ac4bf9cbeae-attr-3-type" class="er entityLabel">String</text><rect height="22" width="59.5625" y="68" x="54.04840087890625" class="er attributeBoxOdd"/><text style="dominant-baseline: middle; font-size: 10.2px;" transform="translate(59.04840087890625,79)" y="0" x="0" id="text-entity-articles-3c75e384-a1f2-4333-967b-7ac4bf9cbeae-attr-3-name" class="er entityLabel">title</text><rect height="22" width="21.68072509765625" y="68" x="113.61090087890625" class="er attributeBoxOdd"/><text style="dominant-baseline: middle; font-size: 10.2px;" transform="translate(118.61090087890625,79)" y="0" x="0" id="text-entity-articles-3c75e384-a1f2-4333-967b-7ac4bf9cbeae-attr-3-key" class="er entityLabel"/><rect height="22" width="47.174346923828125" y="68" x="135.2916259765625" class="er attributeBoxOdd"/><text style="dominant-baseline: middle; font-size: 10.2px;" transform="translate(140.2916259765625,79)" y="0" x="0" id="text-entity-articles-3c75e384-a1f2-4333-967b-7ac4bf9cbeae-attr-3-comment" class="er entityLabel"/><rect height="22" width="54.04840087890625" y="90" x="0" class="er attributeBoxEven"/><text style="dominant-baseline: middle; font-size: 10.2px;" transform="translate(5,101)" y="0" x="0" id="text-entity-articles-3c75e384-a1f2-4333-967b-7ac4bf9cbeae-attr-4-type" class="er entityLabel">String</text><rect height="22" width="59.5625" y="90" x="54.04840087890625" class="er attributeBoxEven"/><text style="dominant-baseline: middle; font-size: 10.2px;" transform="translate(59.04840087890625,101)" y="0" x="0" id="text-entity-articles-3c75e384-a1f2-4333-967b-7ac4bf9cbeae-attr-4-name" class="er entityLabel">banner_url</text><rect height="22" width="21.68072509765625" y="90" x="113.61090087890625" class="er attributeBoxEven"/><text style="dominant-baseline: middle; font-size: 10.2px;" transform="translate(118.61090087890625,101)" y="0" x="0" id="text-entity-articles-3c75e384-a1f2-4333-967b-7ac4bf9cbeae-attr-4-key" class="er entityLabel"/><rect height="22" width="47.174346923828125" y="90" x="135.2916259765625" class="er attributeBoxEven"/><text style="dominant-baseline: middle; font-size: 10.2px;" transform="translate(140.2916259765625,101)" y="0" x="0" id="text-entity-articles-3c75e384-a1f2-4333-967b-7ac4bf9cbeae-attr-4-comment" class="er entityLabel">nullable</text><rect height="22" width="54.04840087890625" y="112" x="0" class="er attributeBoxOdd"/><text style="dominant-baseline: middle; font-size: 10.2px;" transform="translate(5,123)" y="0" x="0" id="text-entity-articles-3c75e384-a1f2-4333-967b-7ac4bf9cbeae-attr-5-type" class="er entityLabel">String</text><rect height="22" width="59.5625" y="112" x="54.04840087890625" class="er attributeBoxOdd"/><text style="dominant-baseline: middle; font-size: 10.2px;" transform="translate(59.04840087890625,123)" y="0" x="0" id="text-entity-articles-3c75e384-a1f2-4333-967b-7ac4bf9cbeae-attr-5-name" class="er entityLabel">content</text><rect height="22" width="21.68072509765625" y="112" x="113.61090087890625" class="er attributeBoxOdd"/><text style="dominant-baseline: middle; font-size: 10.2px;" transform="translate(118.61090087890625,123)" y="0" x="0" id="text-entity-articles-3c75e384-a1f2-4333-967b-7ac4bf9cbeae-attr-5-key" class="er entityLabel"/><rect height="22" width="47.174346923828125" y="112" x="135.2916259765625" class="er attributeBoxOdd"/><text style="dominant-baseline: middle; font-size: 10.2px;" transform="translate(140.2916259765625,123)" y="0" x="0" id="text-entity-articles-3c75e384-a1f2-4333-967b-7ac4bf9cbeae-attr-5-comment" class="er entityLabel"/><rect height="22" width="54.04840087890625" y="134" x="0" class="er attributeBoxEven"/><text style="dominant-baseline: middle; font-size: 10.2px;" transform="translate(5,145)" y="0" x="0" id="text-entity-articles-3c75e384-a1f2-4333-967b-7ac4bf9cbeae-attr-6-type" class="er entityLabel">DateTime</text><rect height="22" width="59.5625" y="134" x="54.04840087890625" class="er attributeBoxEven"/><text style="dominant-baseline: middle; font-size: 10.2px;" transform="translate(59.04840087890625,145)" y="0" x="0" id="text-entity-articles-3c75e384-a1f2-4333-967b-7ac4bf9cbeae-attr-6-name" class="er entityLabel">createdAt</text><rect height="22" width="21.68072509765625" y="134" x="113.61090087890625" class="er attributeBoxEven"/><text style="dominant-baseline: middle; font-size: 10.2px;" transform="translate(118.61090087890625,145)" y="0" x="0" id="text-entity-articles-3c75e384-a1f2-4333-967b-7ac4bf9cbeae-attr-6-key" class="er entityLabel"/><rect height="22" width="47.174346923828125" y="134" x="135.2916259765625" class="er attributeBoxEven"/><text style="dominant-baseline: middle; font-size: 10.2px;" transform="translate(140.2916259765625,145)" y="0" x="0" id="text-entity-articles-3c75e384-a1f2-4333-967b-7ac4bf9cbeae-attr-6-comment" class="er entityLabel"/><rect height="22" width="54.04840087890625" y="156" x="0" class="er attributeBoxOdd"/><text style="dominant-baseline: middle; font-size: 10.2px;" transform="translate(5,167)" y="0" x="0" id="text-entity-articles-3c75e384-a1f2-4333-967b-7ac4bf9cbeae-attr-7-type" class="er entityLabel">DateTime</text><rect height="22" width="59.5625" y="156" x="54.04840087890625" class="er attributeBoxOdd"/><text style="dominant-baseline: middle; font-size: 10.2px;" transform="translate(59.04840087890625,167)" y="0" x="0" id="text-entity-articles-3c75e384-a1f2-4333-967b-7ac4bf9cbeae-attr-7-name" class="er entityLabel">updatedAt</text><rect height="22" width="21.68072509765625" y="156" x="113.61090087890625" class="er attributeBoxOdd"/><text style="dominant-baseline: middle; font-size: 10.2px;" transform="translate(118.61090087890625,167)" y="0" x="0" id="text-entity-articles-3c75e384-a1f2-4333-967b-7ac4bf9cbeae-attr-7-key" class="er entityLabel"/><rect height="22" width="47.174346923828125" y="156" x="135.2916259765625" class="er attributeBoxOdd"/><text style="dominant-baseline: middle; font-size: 10.2px;" transform="translate(140.2916259765625,167)" y="0" x="0" id="text-entity-articles-3c75e384-a1f2-4333-967b-7ac4bf9cbeae-attr-7-comment" class="er entityLabel"/></g><g transform="translate(173.0916519165039,426.5 )" id="entity-Professional-4cb1f175-4293-4767-90b5-553170617519"><rect height="75" width="100" y="0" x="0" class="er entityBox"/><text style="dominant-baseline: middle; text-anchor: middle; font-size: 12px;" transform="translate(50,37.5)" y="0" x="0" id="text-entity-Professional-4cb1f175-4293-4767-90b5-553170617519" class="er entityLabel">Professional</text></g><g transform="translate(536.473388671875,426.5 )" id="entity-Service-e64eb74d-434a-479b-bb34-217fc0bd6f1f"><rect height="75" width="100" y="0" x="0" class="er entityBox"/><text style="dominant-baseline: middle; text-anchor: middle; font-size: 12px;" transform="translate(50,37.5)" y="0" x="0" id="text-entity-Service-e64eb74d-434a-479b-bb34-217fc0bd6f1f" class="er entityLabel">Service</text></g><g transform="translate(736.473388671875,426.5 )" id="entity-User-05912705-dc16-4bab-b08d-b67598d1f526"><rect height="75" width="100" y="0" x="0" class="er entityBox"/><text style="dominant-baseline: middle; text-anchor: middle; font-size: 12px;" transform="translate(50,37.5)" y="0" x="0" id="text-entity-User-05912705-dc16-4bab-b08d-b67598d1f526" class="er entityLabel">User</text></g><rect height="0" width="0" y="345.3092956542969" x="117.38711547851562" class="er relationshipLabelBox"/><text style="text-anchor: middle; dominant-baseline: middle; font-size: 12px;" y="345.3092956542969" x="117.38711547851562" id="rel1" class="er relationshipLabel"/><rect height="0" width="0" y="353.8812561035156" x="589.24267578125" class="er relationshipLabelBox"/><text style="text-anchor: middle; dominant-baseline: middle; font-size: 12px;" y="353.8812561035156" x="589.24267578125" id="rel2" class="er relationshipLabel"/><rect height="0" width="0" y="353.8812255859375" x="783.7041015625" class="er relationshipLabelBox"/><text style="text-anchor: middle; dominant-baseline: middle; font-size: 12px;" y="353.8812255859375" x="783.7041015625" id="rel3" class="er relationshipLabel"/><rect height="0" width="0" y="329.8813781738281" x="334.0766906738281" class="er relationshipLabelBox"/><text style="text-anchor: middle; dominant-baseline: middle; font-size: 12px;" y="329.8813781738281" x="334.0766906738281" id="rel4" class="er relationshipLabel"/><rect height="14" width="39.890625" y="307" x="1022.347412109375" class="er relationshipLabelBox"/><text style="text-anchor: middle; dominant-baseline: middle; font-size: 12px;" y="314" x="1042.292724609375" id="rel5" class="er relationshipLabel">AdMeta</text></svg>