<svg aria-roledescription="er" viewBox="0 0 856.473388671875 481" style="max-width: 856.473px; background-color: white;" xmlns:xlink="http://www.w3.org/1999/xlink" xmlns="http://www.w3.org/2000/svg" width="100%" id="mermaid-0"><style>#mermaid-0{font-family:"trebuchet ms",verdana,arial,sans-serif;font-size:16px;fill:#000000;}#mermaid-0 .error-icon{fill:#552222;}#mermaid-0 .error-text{fill:#552222;stroke:#552222;}#mermaid-0 .edge-thickness-normal{stroke-width:2px;}#mermaid-0 .edge-thickness-thick{stroke-width:3.5px;}#mermaid-0 .edge-pattern-solid{stroke-dasharray:0;}#mermaid-0 .edge-pattern-dashed{stroke-dasharray:3;}#mermaid-0 .edge-pattern-dotted{stroke-dasharray:2;}#mermaid-0 .marker{fill:#666;stroke:#666;}#mermaid-0 .marker.cross{stroke:#666;}#mermaid-0 svg{font-family:"trebuchet ms",verdana,arial,sans-serif;font-size:16px;}#mermaid-0 .entityBox{fill:#eee;stroke:#999;}#mermaid-0 .attributeBoxOdd{fill:#ffffff;stroke:#999;}#mermaid-0 .attributeBoxEven{fill:#f2f2f2;stroke:#999;}#mermaid-0 .relationshipLabelBox{fill:hsl(-160, 0%, 93.3333333333%);opacity:0.7;background-color:hsl(-160, 0%, 93.3333333333%);}#mermaid-0 .relationshipLabelBox rect{opacity:0.5;}#mermaid-0 .relationshipLine{stroke:#666;}#mermaid-0 .entityTitleText{text-anchor:middle;font-size:18px;fill:#000000;}#mermaid-0 :root{--mermaid-font-family:"trebuchet ms",verdana,arial,sans-serif;}</style><g/><defs><marker orient="auto" markerHeight="18" markerWidth="18" refY="9" refX="0" id="ONLY_ONE_START"><path d="M9,0 L9,18 M15,0 L15,18" fill="none" stroke="gray"/></marker></defs><defs><marker orient="auto" markerHeight="18" markerWidth="18" refY="9" refX="18" id="ONLY_ONE_END"><path d="M3,0 L3,18 M9,0 L9,18" fill="none" stroke="gray"/></marker></defs><defs><marker orient="auto" markerHeight="18" markerWidth="30" refY="9" refX="0" id="ZERO_OR_ONE_START"><circle r="6" cy="9" cx="21" fill="white" stroke="gray"/><path d="M9,0 L9,18" fill="none" stroke="gray"/></marker></defs><defs><marker orient="auto" markerHeight="18" markerWidth="30" refY="9" refX="30" id="ZERO_OR_ONE_END"><circle r="6" cy="9" cx="9" fill="white" stroke="gray"/><path d="M21,0 L21,18" fill="none" stroke="gray"/></marker></defs><defs><marker orient="auto" markerHeight="36" markerWidth="45" refY="18" refX="18" id="ONE_OR_MORE_START"><path d="M0,18 Q 18,0 36,18 Q 18,36 0,18 M42,9 L42,27" fill="none" stroke="gray"/></marker></defs><defs><marker orient="auto" markerHeight="36" markerWidth="45" refY="18" refX="27" id="ONE_OR_MORE_END"><path d="M3,9 L3,27 M9,18 Q27,0 45,18 Q27,36 9,18" fill="none" stroke="gray"/></marker></defs><defs><marker orient="auto" markerHeight="36" markerWidth="57" refY="18" refX="18" id="ZERO_OR_MORE_START"><circle r="6" cy="18" cx="48" fill="white" stroke="gray"/><path d="M0,18 Q18,0 36,18 Q18,36 0,18" fill="none" stroke="gray"/></marker></defs><defs><marker orient="auto" markerHeight="36" markerWidth="57" refY="18" refX="39" id="ZERO_OR_MORE_END"><circle r="6" cy="18" cx="9" fill="white" stroke="gray"/><path d="M21,18 Q39,0 57,18 Q39,36 21,18" fill="none" stroke="gray"/></marker></defs><path style="stroke: gray; fill: none;" marker-start="url(#ZERO_OR_MORE_START)" marker-end="url(#ZERO_OR_MORE_END)" d="M97.29757690429688,242L97.29757690429688,257.6666666666667C97.29757690429688,273.3333333333333,97.29757690429688,304.6666666666667,109.92992273966472,329.12015624599775C122.56226857503255,353.5736458253288,147.82696024576822,371.14729165065756,160.45930608113608,379.93411456332205L173.0916519165039,388.72093747598643" class="er relationshipLine"/><path style="stroke: gray; fill: none;" marker-start="url(#ZERO_OR_MORE_START)" marker-end="url(#ZERO_OR_MORE_END)" d="M613.7957930434598,286L609.2420589815289,294.3333333333333C604.6883249195981,302.6666666666667,595.5808567957366,319.3333333333333,591.0271227338058,336C586.473388671875,352.6666666666667,586.473388671875,369.3333333333333,586.473388671875,377.6666666666667L586.473388671875,386" class="er relationshipLine"/><path style="stroke: gray; fill: none;" marker-start="url(#ZERO_OR_MORE_START)" marker-end="url(#ZERO_OR_MORE_END)" d="M759.1509843002902,286L763.7047183622211,294.3333333333333C768.2584524241519,302.6666666666667,777.3659205480135,319.3333333333333,781.9196546099442,336C786.473388671875,352.6666666666667,786.473388671875,369.3333333333333,786.473388671875,377.6666666666667L786.473388671875,386" class="er relationshipLine"/><path style="stroke: gray; fill: none;" marker-start="url(#ZERO_OR_MORE_START)" marker-end="url(#ZERO_OR_MORE_END)" d="M348.88572692871094,209L348.88572692871094,230.16666666666666C348.88572692871094,251.33333333333334,348.88572692871094,293.6666666666667,336.2533810933431,323.62015624599775C323.6210352579753,353.5736458253288,298.35634358723956,371.14729165065756,285.72399775187176,379.93411456332205L273.0916519165039,388.72093747598643" class="er relationshipLine"/><g transform="translate(20,64 )" id="entity-users-db59051c-4879-4a68-86fd-0eb45c5789c4"><rect height="178" width="154.59515380859375" y="0" x="0" class="er entityBox"/><text style="dominant-baseline: middle; text-anchor: middle; font-size: 12px;" transform="translate(77.29757690429688,12)" y="0" x="0" id="text-entity-users-db59051c-4879-4a68-86fd-0eb45c5789c4" class="er entityLabel">users</text><rect height="22" width="54.04840087890625" y="24" x="0" class="er attributeBoxOdd"/><text style="dominant-baseline: middle; font-size: 10.2px;" transform="translate(5,35)" y="0" x="0" id="text-entity-users-db59051c-4879-4a68-86fd-0eb45c5789c4-attr-1-type" class="er entityLabel">String</text><rect height="22" width="78.86602783203125" y="24" x="54.04840087890625" class="er attributeBoxOdd"/><text style="dominant-baseline: middle; font-size: 10.2px;" transform="translate(59.04840087890625,35)" y="0" x="0" id="text-entity-users-db59051c-4879-4a68-86fd-0eb45c5789c4-attr-1-name" class="er entityLabel">id</text><rect height="22" width="21.68072509765625" y="24" x="132.9144287109375" class="er attributeBoxOdd"/><text style="dominant-baseline: middle; font-size: 10.2px;" transform="translate(137.9144287109375,35)" y="0" x="0" id="text-entity-users-db59051c-4879-4a68-86fd-0eb45c5789c4-attr-1-key" class="er entityLabel">PK</text><rect height="22" width="54.04840087890625" y="46" x="0" class="er attributeBoxEven"/><text style="dominant-baseline: middle; font-size: 10.2px;" transform="translate(5,57)" y="0" x="0" id="text-entity-users-db59051c-4879-4a68-86fd-0eb45c5789c4-attr-2-type" class="er entityLabel">String</text><rect height="22" width="78.86602783203125" y="46" x="54.04840087890625" class="er attributeBoxEven"/><text style="dominant-baseline: middle; font-size: 10.2px;" transform="translate(59.04840087890625,57)" y="0" x="0" id="text-entity-users-db59051c-4879-4a68-86fd-0eb45c5789c4-attr-2-name" class="er entityLabel">name</text><rect height="22" width="21.68072509765625" y="46" x="132.9144287109375" class="er attributeBoxEven"/><text style="dominant-baseline: middle; font-size: 10.2px;" transform="translate(137.9144287109375,57)" y="0" x="0" id="text-entity-users-db59051c-4879-4a68-86fd-0eb45c5789c4-attr-2-key" class="er entityLabel"/><rect height="22" width="54.04840087890625" y="68" x="0" class="er attributeBoxOdd"/><text style="dominant-baseline: middle; font-size: 10.2px;" transform="translate(5,79)" y="0" x="0" id="text-entity-users-db59051c-4879-4a68-86fd-0eb45c5789c4-attr-3-type" class="er entityLabel">String</text><rect height="22" width="78.86602783203125" y="68" x="54.04840087890625" class="er attributeBoxOdd"/><text style="dominant-baseline: middle; font-size: 10.2px;" transform="translate(59.04840087890625,79)" y="0" x="0" id="text-entity-users-db59051c-4879-4a68-86fd-0eb45c5789c4-attr-3-name" class="er entityLabel">email</text><rect height="22" width="21.68072509765625" y="68" x="132.9144287109375" class="er attributeBoxOdd"/><text style="dominant-baseline: middle; font-size: 10.2px;" transform="translate(137.9144287109375,79)" y="0" x="0" id="text-entity-users-db59051c-4879-4a68-86fd-0eb45c5789c4-attr-3-key" class="er entityLabel"/><rect height="22" width="54.04840087890625" y="90" x="0" class="er attributeBoxEven"/><text style="dominant-baseline: middle; font-size: 10.2px;" transform="translate(5,101)" y="0" x="0" id="text-entity-users-db59051c-4879-4a68-86fd-0eb45c5789c4-attr-4-type" class="er entityLabel">String</text><rect height="22" width="78.86602783203125" y="90" x="54.04840087890625" class="er attributeBoxEven"/><text style="dominant-baseline: middle; font-size: 10.2px;" transform="translate(59.04840087890625,101)" y="0" x="0" id="text-entity-users-db59051c-4879-4a68-86fd-0eb45c5789c4-attr-4-name" class="er entityLabel">profile_picture</text><rect height="22" width="21.68072509765625" y="90" x="132.9144287109375" class="er attributeBoxEven"/><text style="dominant-baseline: middle; font-size: 10.2px;" transform="translate(137.9144287109375,101)" y="0" x="0" id="text-entity-users-db59051c-4879-4a68-86fd-0eb45c5789c4-attr-4-key" class="er entityLabel"/><rect height="22" width="54.04840087890625" y="112" x="0" class="er attributeBoxOdd"/><text style="dominant-baseline: middle; font-size: 10.2px;" transform="translate(5,123)" y="0" x="0" id="text-entity-users-db59051c-4879-4a68-86fd-0eb45c5789c4-attr-5-type" class="er entityLabel">Boolean</text><rect height="22" width="78.86602783203125" y="112" x="54.04840087890625" class="er attributeBoxOdd"/><text style="dominant-baseline: middle; font-size: 10.2px;" transform="translate(59.04840087890625,123)" y="0" x="0" id="text-entity-users-db59051c-4879-4a68-86fd-0eb45c5789c4-attr-5-name" class="er entityLabel">subscribe</text><rect height="22" width="21.68072509765625" y="112" x="132.9144287109375" class="er attributeBoxOdd"/><text style="dominant-baseline: middle; font-size: 10.2px;" transform="translate(137.9144287109375,123)" y="0" x="0" id="text-entity-users-db59051c-4879-4a68-86fd-0eb45c5789c4-attr-5-key" class="er entityLabel"/><rect height="22" width="54.04840087890625" y="134" x="0" class="er attributeBoxEven"/><text style="dominant-baseline: middle; font-size: 10.2px;" transform="translate(5,145)" y="0" x="0" id="text-entity-users-db59051c-4879-4a68-86fd-0eb45c5789c4-attr-6-type" class="er entityLabel">DateTime</text><rect height="22" width="78.86602783203125" y="134" x="54.04840087890625" class="er attributeBoxEven"/><text style="dominant-baseline: middle; font-size: 10.2px;" transform="translate(59.04840087890625,145)" y="0" x="0" id="text-entity-users-db59051c-4879-4a68-86fd-0eb45c5789c4-attr-6-name" class="er entityLabel">createdAt</text><rect height="22" width="21.68072509765625" y="134" x="132.9144287109375" class="er attributeBoxEven"/><text style="dominant-baseline: middle; font-size: 10.2px;" transform="translate(137.9144287109375,145)" y="0" x="0" id="text-entity-users-db59051c-4879-4a68-86fd-0eb45c5789c4-attr-6-key" class="er entityLabel"/><rect height="22" width="54.04840087890625" y="156" x="0" class="er attributeBoxOdd"/><text style="dominant-baseline: middle; font-size: 10.2px;" transform="translate(5,167)" y="0" x="0" id="text-entity-users-db59051c-4879-4a68-86fd-0eb45c5789c4-attr-7-type" class="er entityLabel">DateTime</text><rect height="22" width="78.86602783203125" y="156" x="54.04840087890625" class="er attributeBoxOdd"/><text style="dominant-baseline: middle; font-size: 10.2px;" transform="translate(59.04840087890625,167)" y="0" x="0" id="text-entity-users-db59051c-4879-4a68-86fd-0eb45c5789c4-attr-7-name" class="er entityLabel">updatedAt</text><rect height="22" width="21.68072509765625" y="156" x="132.9144287109375" class="er attributeBoxOdd"/><text style="dominant-baseline: middle; font-size: 10.2px;" transform="translate(137.9144287109375,167)" y="0" x="0" id="text-entity-users-db59051c-4879-4a68-86fd-0eb45c5789c4-attr-7-key" class="er entityLabel"/></g><g transform="translate(585.5886383056641,20 )" id="entity-professionals-82d44f15-dfcd-41a9-a0f3-d50a1830bcd5"><rect height="266" width="201.76950073242188" y="0" x="0" class="er entityBox"/><text style="dominant-baseline: middle; text-anchor: middle; font-size: 12px;" transform="translate(100.88475036621094,12)" y="0" x="0" id="text-entity-professionals-82d44f15-dfcd-41a9-a0f3-d50a1830bcd5" class="er entityLabel">professionals</text><rect height="22" width="54.04840087890625" y="24" x="0" class="er attributeBoxOdd"/><text style="dominant-baseline: middle; font-size: 10.2px;" transform="translate(5,35)" y="0" x="0" id="text-entity-professionals-82d44f15-dfcd-41a9-a0f3-d50a1830bcd5-attr-1-type" class="er entityLabel">String</text><rect height="22" width="78.86602783203125" y="24" x="54.04840087890625" class="er attributeBoxOdd"/><text style="dominant-baseline: middle; font-size: 10.2px;" transform="translate(59.04840087890625,35)" y="0" x="0" id="text-entity-professionals-82d44f15-dfcd-41a9-a0f3-d50a1830bcd5-attr-1-name" class="er entityLabel">id</text><rect height="22" width="21.68072509765625" y="24" x="132.9144287109375" class="er attributeBoxOdd"/><text style="dominant-baseline: middle; font-size: 10.2px;" transform="translate(137.9144287109375,35)" y="0" x="0" id="text-entity-professionals-82d44f15-dfcd-41a9-a0f3-d50a1830bcd5-attr-1-key" class="er entityLabel">PK</text><rect height="22" width="47.174346923828125" y="24" x="154.59515380859375" class="er attributeBoxOdd"/><text style="dominant-baseline: middle; font-size: 10.2px;" transform="translate(159.59515380859375,35)" y="0" x="0" id="text-entity-professionals-82d44f15-dfcd-41a9-a0f3-d50a1830bcd5-attr-1-comment" class="er entityLabel"/><rect height="22" width="54.04840087890625" y="46" x="0" class="er attributeBoxEven"/><text style="dominant-baseline: middle; font-size: 10.2px;" transform="translate(5,57)" y="0" x="0" id="text-entity-professionals-82d44f15-dfcd-41a9-a0f3-d50a1830bcd5-attr-2-type" class="er entityLabel">String</text><rect height="22" width="78.86602783203125" y="46" x="54.04840087890625" class="er attributeBoxEven"/><text style="dominant-baseline: middle; font-size: 10.2px;" transform="translate(59.04840087890625,57)" y="0" x="0" id="text-entity-professionals-82d44f15-dfcd-41a9-a0f3-d50a1830bcd5-attr-2-name" class="er entityLabel">profile_picture</text><rect height="22" width="21.68072509765625" y="46" x="132.9144287109375" class="er attributeBoxEven"/><text style="dominant-baseline: middle; font-size: 10.2px;" transform="translate(137.9144287109375,57)" y="0" x="0" id="text-entity-professionals-82d44f15-dfcd-41a9-a0f3-d50a1830bcd5-attr-2-key" class="er entityLabel"/><rect height="22" width="47.174346923828125" y="46" x="154.59515380859375" class="er attributeBoxEven"/><text style="dominant-baseline: middle; font-size: 10.2px;" transform="translate(159.59515380859375,57)" y="0" x="0" id="text-entity-professionals-82d44f15-dfcd-41a9-a0f3-d50a1830bcd5-attr-2-comment" class="er entityLabel"/><rect height="22" width="54.04840087890625" y="68" x="0" class="er attributeBoxOdd"/><text style="dominant-baseline: middle; font-size: 10.2px;" transform="translate(5,79)" y="0" x="0" id="text-entity-professionals-82d44f15-dfcd-41a9-a0f3-d50a1830bcd5-attr-3-type" class="er entityLabel">String</text><rect height="22" width="78.86602783203125" y="68" x="54.04840087890625" class="er attributeBoxOdd"/><text style="dominant-baseline: middle; font-size: 10.2px;" transform="translate(59.04840087890625,79)" y="0" x="0" id="text-entity-professionals-82d44f15-dfcd-41a9-a0f3-d50a1830bcd5-attr-3-name" class="er entityLabel">name</text><rect height="22" width="21.68072509765625" y="68" x="132.9144287109375" class="er attributeBoxOdd"/><text style="dominant-baseline: middle; font-size: 10.2px;" transform="translate(137.9144287109375,79)" y="0" x="0" id="text-entity-professionals-82d44f15-dfcd-41a9-a0f3-d50a1830bcd5-attr-3-key" class="er entityLabel"/><rect height="22" width="47.174346923828125" y="68" x="154.59515380859375" class="er attributeBoxOdd"/><text style="dominant-baseline: middle; font-size: 10.2px;" transform="translate(159.59515380859375,79)" y="0" x="0" id="text-entity-professionals-82d44f15-dfcd-41a9-a0f3-d50a1830bcd5-attr-3-comment" class="er entityLabel"/><rect height="22" width="54.04840087890625" y="90" x="0" class="er attributeBoxEven"/><text style="dominant-baseline: middle; font-size: 10.2px;" transform="translate(5,101)" y="0" x="0" id="text-entity-professionals-82d44f15-dfcd-41a9-a0f3-d50a1830bcd5-attr-4-type" class="er entityLabel">String</text><rect height="22" width="78.86602783203125" y="90" x="54.04840087890625" class="er attributeBoxEven"/><text style="dominant-baseline: middle; font-size: 10.2px;" transform="translate(59.04840087890625,101)" y="0" x="0" id="text-entity-professionals-82d44f15-dfcd-41a9-a0f3-d50a1830bcd5-attr-4-name" class="er entityLabel">email</text><rect height="22" width="21.68072509765625" y="90" x="132.9144287109375" class="er attributeBoxEven"/><text style="dominant-baseline: middle; font-size: 10.2px;" transform="translate(137.9144287109375,101)" y="0" x="0" id="text-entity-professionals-82d44f15-dfcd-41a9-a0f3-d50a1830bcd5-attr-4-key" class="er entityLabel"/><rect height="22" width="47.174346923828125" y="90" x="154.59515380859375" class="er attributeBoxEven"/><text style="dominant-baseline: middle; font-size: 10.2px;" transform="translate(159.59515380859375,101)" y="0" x="0" id="text-entity-professionals-82d44f15-dfcd-41a9-a0f3-d50a1830bcd5-attr-4-comment" class="er entityLabel">nullable</text><rect height="22" width="54.04840087890625" y="112" x="0" class="er attributeBoxOdd"/><text style="dominant-baseline: middle; font-size: 10.2px;" transform="translate(5,123)" y="0" x="0" id="text-entity-professionals-82d44f15-dfcd-41a9-a0f3-d50a1830bcd5-attr-5-type" class="er entityLabel">String</text><rect height="22" width="78.86602783203125" y="112" x="54.04840087890625" class="er attributeBoxOdd"/><text style="dominant-baseline: middle; font-size: 10.2px;" transform="translate(59.04840087890625,123)" y="0" x="0" id="text-entity-professionals-82d44f15-dfcd-41a9-a0f3-d50a1830bcd5-attr-5-name" class="er entityLabel">state</text><rect height="22" width="21.68072509765625" y="112" x="132.9144287109375" class="er attributeBoxOdd"/><text style="dominant-baseline: middle; font-size: 10.2px;" transform="translate(137.9144287109375,123)" y="0" x="0" id="text-entity-professionals-82d44f15-dfcd-41a9-a0f3-d50a1830bcd5-attr-5-key" class="er entityLabel"/><rect height="22" width="47.174346923828125" y="112" x="154.59515380859375" class="er attributeBoxOdd"/><text style="dominant-baseline: middle; font-size: 10.2px;" transform="translate(159.59515380859375,123)" y="0" x="0" id="text-entity-professionals-82d44f15-dfcd-41a9-a0f3-d50a1830bcd5-attr-5-comment" class="er entityLabel"/><rect height="22" width="54.04840087890625" y="134" x="0" class="er attributeBoxEven"/><text style="dominant-baseline: middle; font-size: 10.2px;" transform="translate(5,145)" y="0" x="0" id="text-entity-professionals-82d44f15-dfcd-41a9-a0f3-d50a1830bcd5-attr-6-type" class="er entityLabel">String</text><rect height="22" width="78.86602783203125" y="134" x="54.04840087890625" class="er attributeBoxEven"/><text style="dominant-baseline: middle; font-size: 10.2px;" transform="translate(59.04840087890625,145)" y="0" x="0" id="text-entity-professionals-82d44f15-dfcd-41a9-a0f3-d50a1830bcd5-attr-6-name" class="er entityLabel">city</text><rect height="22" width="21.68072509765625" y="134" x="132.9144287109375" class="er attributeBoxEven"/><text style="dominant-baseline: middle; font-size: 10.2px;" transform="translate(137.9144287109375,145)" y="0" x="0" id="text-entity-professionals-82d44f15-dfcd-41a9-a0f3-d50a1830bcd5-attr-6-key" class="er entityLabel"/><rect height="22" width="47.174346923828125" y="134" x="154.59515380859375" class="er attributeBoxEven"/><text style="dominant-baseline: middle; font-size: 10.2px;" transform="translate(159.59515380859375,145)" y="0" x="0" id="text-entity-professionals-82d44f15-dfcd-41a9-a0f3-d50a1830bcd5-attr-6-comment" class="er entityLabel"/><rect height="22" width="54.04840087890625" y="156" x="0" class="er attributeBoxOdd"/><text style="dominant-baseline: middle; font-size: 10.2px;" transform="translate(5,167)" y="0" x="0" id="text-entity-professionals-82d44f15-dfcd-41a9-a0f3-d50a1830bcd5-attr-7-type" class="er entityLabel">String</text><rect height="22" width="78.86602783203125" y="156" x="54.04840087890625" class="er attributeBoxOdd"/><text style="dominant-baseline: middle; font-size: 10.2px;" transform="translate(59.04840087890625,167)" y="0" x="0" id="text-entity-professionals-82d44f15-dfcd-41a9-a0f3-d50a1830bcd5-attr-7-name" class="er entityLabel">biography</text><rect height="22" width="21.68072509765625" y="156" x="132.9144287109375" class="er attributeBoxOdd"/><text style="dominant-baseline: middle; font-size: 10.2px;" transform="translate(137.9144287109375,167)" y="0" x="0" id="text-entity-professionals-82d44f15-dfcd-41a9-a0f3-d50a1830bcd5-attr-7-key" class="er entityLabel"/><rect height="22" width="47.174346923828125" y="156" x="154.59515380859375" class="er attributeBoxOdd"/><text style="dominant-baseline: middle; font-size: 10.2px;" transform="translate(159.59515380859375,167)" y="0" x="0" id="text-entity-professionals-82d44f15-dfcd-41a9-a0f3-d50a1830bcd5-attr-7-comment" class="er entityLabel"/><rect height="22" width="54.04840087890625" y="178" x="0" class="er attributeBoxEven"/><text style="dominant-baseline: middle; font-size: 10.2px;" transform="translate(5,189)" y="0" x="0" id="text-entity-professionals-82d44f15-dfcd-41a9-a0f3-d50a1830bcd5-attr-8-type" class="er entityLabel">String</text><rect height="22" width="78.86602783203125" y="178" x="54.04840087890625" class="er attributeBoxEven"/><text style="dominant-baseline: middle; font-size: 10.2px;" transform="translate(59.04840087890625,189)" y="0" x="0" id="text-entity-professionals-82d44f15-dfcd-41a9-a0f3-d50a1830bcd5-attr-8-name" class="er entityLabel">whatsapp</text><rect height="22" width="21.68072509765625" y="178" x="132.9144287109375" class="er attributeBoxEven"/><text style="dominant-baseline: middle; font-size: 10.2px;" transform="translate(137.9144287109375,189)" y="0" x="0" id="text-entity-professionals-82d44f15-dfcd-41a9-a0f3-d50a1830bcd5-attr-8-key" class="er entityLabel"/><rect height="22" width="47.174346923828125" y="178" x="154.59515380859375" class="er attributeBoxEven"/><text style="dominant-baseline: middle; font-size: 10.2px;" transform="translate(159.59515380859375,189)" y="0" x="0" id="text-entity-professionals-82d44f15-dfcd-41a9-a0f3-d50a1830bcd5-attr-8-comment" class="er entityLabel">nullable</text><rect height="22" width="54.04840087890625" y="200" x="0" class="er attributeBoxOdd"/><text style="dominant-baseline: middle; font-size: 10.2px;" transform="translate(5,211)" y="0" x="0" id="text-entity-professionals-82d44f15-dfcd-41a9-a0f3-d50a1830bcd5-attr-9-type" class="er entityLabel">String</text><rect height="22" width="78.86602783203125" y="200" x="54.04840087890625" class="er attributeBoxOdd"/><text style="dominant-baseline: middle; font-size: 10.2px;" transform="translate(59.04840087890625,211)" y="0" x="0" id="text-entity-professionals-82d44f15-dfcd-41a9-a0f3-d50a1830bcd5-attr-9-name" class="er entityLabel">instagram</text><rect height="22" width="21.68072509765625" y="200" x="132.9144287109375" class="er attributeBoxOdd"/><text style="dominant-baseline: middle; font-size: 10.2px;" transform="translate(137.9144287109375,211)" y="0" x="0" id="text-entity-professionals-82d44f15-dfcd-41a9-a0f3-d50a1830bcd5-attr-9-key" class="er entityLabel"/><rect height="22" width="47.174346923828125" y="200" x="154.59515380859375" class="er attributeBoxOdd"/><text style="dominant-baseline: middle; font-size: 10.2px;" transform="translate(159.59515380859375,211)" y="0" x="0" id="text-entity-professionals-82d44f15-dfcd-41a9-a0f3-d50a1830bcd5-attr-9-comment" class="er entityLabel">nullable</text><rect height="22" width="54.04840087890625" y="222" x="0" class="er attributeBoxEven"/><text style="dominant-baseline: middle; font-size: 10.2px;" transform="translate(5,233)" y="0" x="0" id="text-entity-professionals-82d44f15-dfcd-41a9-a0f3-d50a1830bcd5-attr-10-type" class="er entityLabel">DateTime</text><rect height="22" width="78.86602783203125" y="222" x="54.04840087890625" class="er attributeBoxEven"/><text style="dominant-baseline: middle; font-size: 10.2px;" transform="translate(59.04840087890625,233)" y="0" x="0" id="text-entity-professionals-82d44f15-dfcd-41a9-a0f3-d50a1830bcd5-attr-10-name" class="er entityLabel">createdAt</text><rect height="22" width="21.68072509765625" y="222" x="132.9144287109375" class="er attributeBoxEven"/><text style="dominant-baseline: middle; font-size: 10.2px;" transform="translate(137.9144287109375,233)" y="0" x="0" id="text-entity-professionals-82d44f15-dfcd-41a9-a0f3-d50a1830bcd5-attr-10-key" class="er entityLabel"/><rect height="22" width="47.174346923828125" y="222" x="154.59515380859375" class="er attributeBoxEven"/><text style="dominant-baseline: middle; font-size: 10.2px;" transform="translate(159.59515380859375,233)" y="0" x="0" id="text-entity-professionals-82d44f15-dfcd-41a9-a0f3-d50a1830bcd5-attr-10-comment" class="er entityLabel"/><rect height="22" width="54.04840087890625" y="244" x="0" class="er attributeBoxOdd"/><text style="dominant-baseline: middle; font-size: 10.2px;" transform="translate(5,255)" y="0" x="0" id="text-entity-professionals-82d44f15-dfcd-41a9-a0f3-d50a1830bcd5-attr-11-type" class="er entityLabel">DateTime</text><rect height="22" width="78.86602783203125" y="244" x="54.04840087890625" class="er attributeBoxOdd"/><text style="dominant-baseline: middle; font-size: 10.2px;" transform="translate(59.04840087890625,255)" y="0" x="0" id="text-entity-professionals-82d44f15-dfcd-41a9-a0f3-d50a1830bcd5-attr-11-name" class="er entityLabel">updatedAt</text><rect height="22" width="21.68072509765625" y="244" x="132.9144287109375" class="er attributeBoxOdd"/><text style="dominant-baseline: middle; font-size: 10.2px;" transform="translate(137.9144287109375,255)" y="0" x="0" id="text-entity-professionals-82d44f15-dfcd-41a9-a0f3-d50a1830bcd5-attr-11-key" class="er entityLabel"/><rect height="22" width="47.174346923828125" y="244" x="154.59515380859375" class="er attributeBoxOdd"/><text style="dominant-baseline: middle; font-size: 10.2px;" transform="translate(159.59515380859375,255)" y="0" x="0" id="text-entity-professionals-82d44f15-dfcd-41a9-a0f3-d50a1830bcd5-attr-11-comment" class="er entityLabel"/></g><g transform="translate(274.59515380859375,97 )" id="entity-services-7057cc1a-8cdf-487b-a0cd-c28425c91937"><rect height="112" width="148.58114624023438" y="0" x="0" class="er entityBox"/><text style="dominant-baseline: middle; text-anchor: middle; font-size: 12px;" transform="translate(74.29057312011719,12)" y="0" x="0" id="text-entity-services-7057cc1a-8cdf-487b-a0cd-c28425c91937" class="er entityLabel">services</text><rect height="22" width="54.04840087890625" y="24" x="0" class="er attributeBoxOdd"/><text style="dominant-baseline: middle; font-size: 10.2px;" transform="translate(5,35)" y="0" x="0" id="text-entity-services-7057cc1a-8cdf-487b-a0cd-c28425c91937-attr-1-type" class="er entityLabel">String</text><rect height="22" width="72.85202026367188" y="24" x="54.04840087890625" class="er attributeBoxOdd"/><text style="dominant-baseline: middle; font-size: 10.2px;" transform="translate(59.04840087890625,35)" y="0" x="0" id="text-entity-services-7057cc1a-8cdf-487b-a0cd-c28425c91937-attr-1-name" class="er entityLabel">id</text><rect height="22" width="21.68072509765625" y="24" x="126.90042114257812" class="er attributeBoxOdd"/><text style="dominant-baseline: middle; font-size: 10.2px;" transform="translate(131.90042114257812,35)" y="0" x="0" id="text-entity-services-7057cc1a-8cdf-487b-a0cd-c28425c91937-attr-1-key" class="er entityLabel">PK</text><rect height="22" width="54.04840087890625" y="46" x="0" class="er attributeBoxEven"/><text style="dominant-baseline: middle; font-size: 10.2px;" transform="translate(5,57)" y="0" x="0" id="text-entity-services-7057cc1a-8cdf-487b-a0cd-c28425c91937-attr-2-type" class="er entityLabel">String</text><rect height="22" width="72.85202026367188" y="46" x="54.04840087890625" class="er attributeBoxEven"/><text style="dominant-baseline: middle; font-size: 10.2px;" transform="translate(59.04840087890625,57)" y="0" x="0" id="text-entity-services-7057cc1a-8cdf-487b-a0cd-c28425c91937-attr-2-name" class="er entityLabel">service_name</text><rect height="22" width="21.68072509765625" y="46" x="126.90042114257812" class="er attributeBoxEven"/><text style="dominant-baseline: middle; font-size: 10.2px;" transform="translate(131.90042114257812,57)" y="0" x="0" id="text-entity-services-7057cc1a-8cdf-487b-a0cd-c28425c91937-attr-2-key" class="er entityLabel"/><rect height="22" width="54.04840087890625" y="68" x="0" class="er attributeBoxOdd"/><text style="dominant-baseline: middle; font-size: 10.2px;" transform="translate(5,79)" y="0" x="0" id="text-entity-services-7057cc1a-8cdf-487b-a0cd-c28425c91937-attr-3-type" class="er entityLabel">DateTime</text><rect height="22" width="72.85202026367188" y="68" x="54.04840087890625" class="er attributeBoxOdd"/><text style="dominant-baseline: middle; font-size: 10.2px;" transform="translate(59.04840087890625,79)" y="0" x="0" id="text-entity-services-7057cc1a-8cdf-487b-a0cd-c28425c91937-attr-3-name" class="er entityLabel">createdAt</text><rect height="22" width="21.68072509765625" y="68" x="126.90042114257812" class="er attributeBoxOdd"/><text style="dominant-baseline: middle; font-size: 10.2px;" transform="translate(131.90042114257812,79)" y="0" x="0" id="text-entity-services-7057cc1a-8cdf-487b-a0cd-c28425c91937-attr-3-key" class="er entityLabel"/><rect height="22" width="54.04840087890625" y="90" x="0" class="er attributeBoxEven"/><text style="dominant-baseline: middle; font-size: 10.2px;" transform="translate(5,101)" y="0" x="0" id="text-entity-services-7057cc1a-8cdf-487b-a0cd-c28425c91937-attr-4-type" class="er entityLabel">DateTime</text><rect height="22" width="72.85202026367188" y="90" x="54.04840087890625" class="er attributeBoxEven"/><text style="dominant-baseline: middle; font-size: 10.2px;" transform="translate(59.04840087890625,101)" y="0" x="0" id="text-entity-services-7057cc1a-8cdf-487b-a0cd-c28425c91937-attr-4-name" class="er entityLabel">updatedAt</text><rect height="22" width="21.68072509765625" y="90" x="126.90042114257812" class="er attributeBoxEven"/><text style="dominant-baseline: middle; font-size: 10.2px;" transform="translate(131.90042114257812,101)" y="0" x="0" id="text-entity-services-7057cc1a-8cdf-487b-a0cd-c28425c91937-attr-4-key" class="er entityLabel"/></g><g transform="translate(173.0916519165039,386 )" id="entity-Professional-7bd8a78b-1a5d-43f6-90cc-5b15b2852f67"><rect height="75" width="100" y="0" x="0" class="er entityBox"/><text style="dominant-baseline: middle; text-anchor: middle; font-size: 12px;" transform="translate(50,37.5)" y="0" x="0" id="text-entity-Professional-7bd8a78b-1a5d-43f6-90cc-5b15b2852f67" class="er entityLabel">Professional</text></g><g transform="translate(536.473388671875,386 )" id="entity-Service-81e74257-cabc-4f52-b729-8ba526e468ce"><rect height="75" width="100" y="0" x="0" class="er entityBox"/><text style="dominant-baseline: middle; text-anchor: middle; font-size: 12px;" transform="translate(50,37.5)" y="0" x="0" id="text-entity-Service-81e74257-cabc-4f52-b729-8ba526e468ce" class="er entityLabel">Service</text></g><g transform="translate(736.473388671875,386 )" id="entity-User-5ed8a772-f758-486b-ae08-47c6ad189221"><rect height="75" width="100" y="0" x="0" class="er entityBox"/><text style="dominant-baseline: middle; text-anchor: middle; font-size: 12px;" transform="translate(50,37.5)" y="0" x="0" id="text-entity-User-5ed8a772-f758-486b-ae08-47c6ad189221" class="er entityLabel">User</text></g><rect height="0" width="0" y="328.6060485839844" x="109.66683959960938" class="er relationshipLabelBox"/><text style="text-anchor: middle; dominant-baseline: middle; font-size: 12px;" y="328.6060485839844" x="109.66683959960938" id="rel1" class="er relationshipLabel"/><rect height="0" width="0" y="333.74237060546875" x="591.6712646484375" class="er relationshipLabelBox"/><text style="text-anchor: middle; dominant-baseline: middle; font-size: 12px;" y="333.74237060546875" x="591.6712646484375" id="rel2" class="er relationshipLabel"/><rect height="0" width="0" y="333.7424011230469" x="781.2753295898438" class="er relationshipLabelBox"/><text style="text-anchor: middle; dominant-baseline: middle; font-size: 12px;" y="333.7424011230469" x="781.2753295898438" id="rel3" class="er relationshipLabel"/><rect height="0" width="0" y="312.36175537109375" x="340.27655029296875" class="er relationshipLabelBox"/><text style="text-anchor: middle; dominant-baseline: middle; font-size: 12px;" y="312.36175537109375" x="340.27655029296875" id="rel4" class="er relationshipLabel"/></svg>