<svg width="2596" height="451" viewBox="0 0 2596 451" fill="none" xmlns="http://www.w3.org/2000/svg">
<path d="M725.217 61.15C732.117 61.15 737.217 61.45 740.517 62.05C744.117 62.35 748.017 63.7 752.217 66.1C756.717 68.5 759.867 72.55 761.667 78.25C763.467 83.95 764.367 91.6 764.367 101.2C764.367 110.8 763.467 118.45 761.667 124.15C759.867 129.85 756.717 133.9 752.217 136.3C747.717 138.4 743.667 139.75 740.067 140.35C736.767 140.65 731.517 140.8 724.317 140.8H586.617V186.25H675.267C682.467 186.25 687.717 186.55 691.017 187.15C694.617 187.45 698.667 188.8 703.167 191.2C710.967 195.7 714.867 207.55 714.867 226.75C714.867 247.75 709.167 260.2 697.767 264.1C692.967 265.6 685.317 266.35 674.817 266.35H586.617V351.4C586.617 358.6 586.317 363.85 585.717 367.15C585.417 370.45 584.067 374.35 581.667 378.85C577.467 386.95 565.767 391 546.567 391C525.567 391 513.267 385.3 509.667 373.9C507.867 369.1 506.967 361.45 506.967 350.95V100.75C506.967 85.45 509.817 75.1 515.517 69.7C521.217 64 532.017 61.15 547.917 61.15H725.217ZM746.311 272.65C746.311 236.65 758.911 206.95 784.111 183.55C809.311 160.15 838.111 148.45 870.511 148.45C902.911 148.45 931.561 160.15 956.461 183.55C981.361 206.65 993.811 236.2 993.811 272.2C993.811 297.1 987.361 319.3 974.461 338.8C961.561 358 945.811 372.25 927.211 381.55C908.911 390.55 889.861 395.05 870.061 395.05C850.261 395.05 831.061 390.25 812.461 380.65C793.861 370.75 778.111 356.35 765.211 337.45C752.611 318.25 746.311 296.65 746.311 272.65ZM840.361 305.05C849.961 312.25 859.711 315.85 869.611 315.85C879.511 315.85 889.411 312.1 899.311 304.6C909.211 297.1 914.161 286 914.161 271.3C914.161 256.6 909.511 245.65 900.211 238.45C890.911 231.25 880.861 227.65 870.061 227.65C859.261 227.65 849.211 231.4 839.911 238.9C830.611 246.4 825.961 257.5 825.961 272.2C825.961 286.6 830.761 297.55 840.361 305.05ZM1183.98 156.55C1189.68 158.35 1194.33 161.5 1197.93 166C1201.83 170.2 1203.78 177.1 1203.78 186.7C1203.78 196.3 1200.93 206.8 1195.23 218.2C1189.53 229.6 1181.28 235.3 1170.48 235.3C1165.08 235.3 1159.83 234.1 1154.73 231.7C1149.93 229.3 1143.48 228.1 1135.38 228.1C1127.28 228.1 1119.63 230.95 1112.43 236.65C1105.53 242.35 1102.08 249.25 1102.08 257.35V351.85C1102.08 358.75 1101.78 364 1101.18 367.6C1100.88 370.9 1099.53 374.8 1097.13 379.3C1092.63 387.1 1080.93 391 1062.03 391C1047.63 391 1037.28 388.45 1030.98 383.35C1026.18 379.15 1023.48 372.7 1022.88 364C1022.88 361 1022.88 356.65 1022.88 350.95V193C1022.88 186.1 1023.03 181 1023.33 177.7C1023.93 174.1 1025.28 170.2 1027.38 166C1031.58 157.9 1043.28 153.85 1062.48 153.85C1080.48 153.85 1091.73 157.3 1096.23 164.2C1099.53 169 1101.18 173.95 1101.18 179.05C1102.68 176.95 1104.78 174.4 1107.48 171.4C1110.48 168.4 1116.63 164.35 1125.93 159.25C1135.23 154.15 1143.33 151.6 1150.23 151.6C1157.43 151.6 1163.43 152.05 1168.23 152.95C1173.03 153.55 1178.28 154.75 1183.98 156.55ZM1305.95 185.35C1320.05 164.05 1337 153.4 1356.8 153.4C1387.4 153.4 1410.2 166.45 1425.2 192.55C1428.5 188.05 1432.4 183.4 1436.9 178.6C1441.7 173.5 1449.2 168.1 1459.4 162.4C1469.6 156.4 1480.1 153.4 1490.9 153.4C1514.9 153.4 1535 162.7 1551.2 181.3C1567.4 199.6 1575.5 230.05 1575.5 272.65V351.4C1575.5 358.3 1575.2 363.55 1574.6 367.15C1574.3 370.45 1572.95 374.35 1570.55 378.85C1566.65 386.95 1555.1 391 1535.9 391C1517 391 1505.45 386.8 1501.25 378.4C1499.15 373.9 1497.8 370 1497.2 366.7C1496.9 363.1 1496.75 357.85 1496.75 350.95V272.2C1496.75 246.1 1487.45 233.05 1468.85 233.05C1458.35 233.05 1451.15 236.5 1447.25 243.4C1443.65 250.3 1441.85 260.05 1441.85 272.65V351.4C1441.85 358.6 1441.55 363.85 1440.95 367.15C1440.65 370.45 1439.3 374.35 1436.9 378.85C1432.7 386.95 1421 391 1401.8 391C1382.9 391 1371.35 386.8 1367.15 378.4C1365.05 373.9 1363.7 370 1363.1 366.7C1362.8 363.1 1362.65 357.85 1362.65 350.95V272.2C1362.65 246.1 1353.35 233.05 1334.75 233.05C1316.75 233.05 1307.75 246.1 1307.75 272.2V351.85C1307.75 358.75 1307.45 364 1306.85 367.6C1306.55 370.9 1305.2 374.8 1302.8 379.3C1298.3 387.1 1286.6 391 1267.7 391C1248.8 391 1237.25 386.95 1233.05 378.85C1230.95 374.35 1229.6 370.45 1229 367.15C1228.7 363.85 1228.55 358.6 1228.55 351.4V193C1228.55 186.1 1228.7 181 1229 177.7C1229.6 174.1 1231.1 170.2 1233.5 166C1238 157.9 1248.65 153.85 1265.45 153.85C1282.25 153.85 1293.2 156.55 1298.3 161.95C1303.4 167.35 1305.95 175.15 1305.95 185.35ZM1765.21 179.05C1767.01 162.25 1778.86 153.85 1800.76 153.85C1812.46 153.85 1821.16 154.75 1826.86 156.55C1832.56 158.35 1836.46 161.5 1838.56 166C1840.96 170.5 1842.31 174.55 1842.61 178.15C1843.21 181.45 1843.51 186.55 1843.51 193.45V350.95C1843.51 357.85 1843.21 363.1 1842.61 366.7C1842.31 370 1841.11 373.9 1839.01 378.4C1834.81 386.2 1824.46 390.1 1807.96 390.1C1791.76 390.1 1780.81 388.15 1775.11 384.25C1769.71 380.05 1766.56 374.05 1765.66 366.25C1754.56 382.15 1735.96 390.1 1709.86 390.1C1684.06 390.1 1660.06 378.25 1637.86 354.55C1615.66 330.85 1604.56 303.4 1604.56 272.2C1604.56 240.7 1615.66 213.25 1637.86 189.85C1660.36 166.15 1684.96 154.3 1711.66 154.3C1721.86 154.3 1731.16 156.1 1739.56 159.7C1747.96 163.3 1753.81 166.75 1757.11 170.05C1760.41 173.05 1763.11 176.05 1765.21 179.05ZM1683.31 272.65C1683.31 282.55 1687.21 291.55 1695.01 299.65C1702.81 307.45 1712.26 311.35 1723.36 311.35C1734.46 311.35 1743.61 307.3 1750.81 299.2C1758.31 291.1 1762.06 282.25 1762.06 272.65C1762.06 262.75 1758.46 253.6 1751.26 245.2C1744.36 236.8 1734.91 232.6 1722.91 232.6C1711.21 232.6 1701.61 236.8 1694.11 245.2C1686.91 253.6 1683.31 262.75 1683.31 272.65ZM2017.08 233.5L1987.83 231.7V293.8C1987.83 301.9 1989.03 307.75 1991.43 311.35C1994.13 314.95 1998.93 316.75 2005.83 316.75C2013.03 316.75 2018.43 317.05 2022.03 317.65C2025.93 317.95 2029.98 319.3 2034.18 321.7C2041.08 325.6 2044.53 335.65 2044.53 351.85C2044.53 370.75 2040.33 382.3 2031.93 386.5C2027.43 388.6 2023.38 389.95 2019.78 390.55C2016.48 390.85 2011.53 391 2004.93 391C1973.73 391 1950.03 383.95 1933.83 369.85C1917.63 355.75 1909.53 331.9 1909.53 298.3V231.7C1903.83 232.6 1897.68 233.05 1891.08 233.05C1884.48 233.05 1878.93 230.5 1874.43 225.4C1870.23 220.3 1868.13 211.6 1868.13 199.3C1868.13 187 1868.88 178.15 1870.38 172.75C1871.88 167.05 1873.98 163 1876.68 160.6C1881.48 156.7 1887.48 154.75 1894.68 154.75L1909.53 156.55V110.2C1909.53 103.3 1909.68 98.2 1909.98 94.9C1910.58 91.6 1912.08 88 1914.48 84.1C1918.38 76.6 1929.93 72.85 1949.13 72.85C1969.53 72.85 1981.68 78.4 1985.58 89.5C1987.08 94.3 1987.83 101.95 1987.83 112.45V156.55C2001.03 155.35 2010.93 154.75 2017.53 154.75C2024.43 154.75 2029.53 155.05 2032.83 155.65C2036.43 155.95 2040.48 157.3 2044.98 159.7C2052.78 163.6 2056.68 175.15 2056.68 194.35C2056.68 213.25 2052.63 224.8 2044.53 229C2040.03 231.1 2035.98 232.45 2032.38 233.05C2029.08 233.35 2023.98 233.5 2017.08 233.5ZM2146.99 272.65C2146.99 285.25 2151.19 295.15 2159.59 302.35C2167.99 309.25 2176.84 312.7 2186.14 312.7C2195.74 312.7 2204.59 310 2212.69 304.6C2221.09 298.9 2227.84 296.05 2232.94 296.05C2241.94 296.05 2252.89 304 2265.79 319.9C2272.69 328.6 2276.14 336.4 2276.14 343.3C2276.14 354.7 2267.89 365.35 2251.39 375.25C2234.29 387.25 2213.29 393.25 2188.39 393.25C2160.49 393.25 2133.64 383.2 2107.84 363.1C2095.54 353.5 2085.49 340.75 2077.69 324.85C2069.89 308.65 2065.99 290.95 2065.99 271.75C2065.99 252.25 2069.89 234.7 2077.69 219.1C2085.49 203.2 2095.54 190.45 2107.84 180.85C2132.74 161.05 2159.29 151.15 2187.49 151.15C2198.89 151.15 2209.99 152.8 2220.79 156.1C2231.59 159.1 2239.54 162.1 2244.64 165.1L2251.84 169.6C2257.24 173.2 2261.44 176.05 2264.44 178.15C2272.24 184.15 2276.14 191.05 2276.14 198.85C2276.14 206.35 2272.99 214.9 2266.69 224.5C2255.89 241 2245.54 249.25 2235.64 249.25C2229.94 249.25 2221.84 245.95 2211.34 239.35C2205.94 234.25 2198.14 231.7 2187.94 231.7C2178.04 231.7 2168.74 235.3 2160.04 242.5C2151.34 249.7 2146.99 259.75 2146.99 272.65ZM2433.97 154.75C2463.97 154.75 2488.87 166.15 2508.67 188.95C2528.77 211.75 2538.82 239.65 2538.82 272.65V351.85C2538.82 358.75 2538.52 364 2537.92 367.6C2537.62 370.9 2536.27 374.8 2533.87 379.3C2529.97 387.1 2518.42 391 2499.22 391C2480.92 391 2469.52 387.1 2465.02 379.3C2462.62 374.8 2461.12 370.75 2460.52 367.15C2460.22 363.55 2460.07 358.15 2460.07 350.95V272.2C2460.07 259.9 2456.62 250.3 2449.72 243.4C2442.82 236.5 2433.97 233.05 2423.17 233.05C2412.67 233.05 2403.37 236.35 2395.27 242.95C2387.17 249.25 2382.52 256.45 2381.32 264.55V351.85C2381.32 358.75 2381.02 364 2380.42 367.6C2380.12 370.9 2378.77 374.8 2376.37 379.3C2372.47 387.1 2360.92 391 2341.72 391C2322.82 391 2311.27 386.95 2307.07 378.85C2304.97 374.35 2303.62 370.45 2303.02 367.15C2302.72 363.85 2302.57 358.6 2302.57 351.4V82.3C2302.57 75.4 2302.72 70.3 2303.02 67C2303.62 63.4 2304.97 59.5 2307.07 55.3C2311.27 47.2 2322.97 43.15 2342.17 43.15C2361.07 43.15 2372.47 47.2 2376.37 55.3C2378.77 59.8 2380.12 63.85 2380.42 67.45C2381.02 70.75 2381.32 75.85 2381.32 82.75V182.2C2396.32 163.9 2413.87 154.75 2433.97 154.75Z" fill="#000C7C"/>
<rect x="0.197266" y="0.19812" width="450" height="450" rx="100" fill="#FA5D14"/>
<path d="M92.8176 278.453C88.5986 278.453 85.7859 277.046 82.9733 274.234L30.9392 222.2C28.1265 219.387 26.7202 216.574 26.7202 212.355C26.7202 208.136 28.1265 205.324 30.9392 202.511L52.0341 181.416C56.2531 177.197 61.8784 175.791 66.0974 178.603L77.348 182.822L85.7859 174.384C84.3796 160.321 88.5986 144.852 99.8492 133.601L158.915 74.5353C182.822 50.6278 215.168 36.5645 250.326 35.1582H255.951C261.577 35.1582 267.202 37.9708 268.608 43.5961C270.015 49.2214 270.015 54.8467 265.796 59.0657L258.764 66.0973C240.482 84.3796 230.638 109.693 234.857 135.007C234.857 139.226 233.45 143.445 230.638 146.258L171.572 205.324C160.321 216.574 146.258 220.793 130.788 219.387L122.35 227.825L126.569 239.076C127.976 244.701 126.569 248.92 123.757 253.139L102.662 274.234C99.8492 277.046 97.0365 278.453 92.8176 278.453Z" fill="#000C7C"/>
<path d="M405.022 315.017L247.513 170.165L192.667 225.012C191.26 226.419 191.26 226.419 189.854 227.825L336.112 386.74C345.956 396.584 357.207 402.209 371.27 402.209H372.676C385.333 402.209 397.99 396.584 407.835 388.146C417.679 378.302 421.898 365.645 421.898 351.582C420.492 337.518 414.866 324.861 405.022 315.017Z" fill="#000C7C"/>
</svg>
